<svg width="36" height="47" viewBox="0 0 70 89" fill="none" xmlns="http://www.w3.org/2000/svg"><path fill-rule="evenodd" clip-rule="evenodd" d="M34.507 5.195l-.999 8.106C31.55 29.193 19.524 41.885 3.951 44.5c15.573 2.615 27.599 15.307 29.557 31.2l.999 8.105.999-8.106C37.464 59.807 49.49 47.115 65.064 44.5c-15.574-2.615-27.6-15.307-29.558-31.2l-.999-8.105zm-2.24 7.948L33.887 0h1.24l1.62 13.143c1.891 15.344 13.508 27.596 28.548 30.11l3.72.62v1.253l-3.72.622c-15.04 2.513-26.657 14.765-28.548 30.109L35.127 89h-1.24l-1.62-13.143C30.376 60.513 18.759 48.26 3.719 45.747L0 45.128v-1.253l3.719-.622c15.04-2.513 26.657-14.765 28.548-30.109z" fill="#fff"/><path d="M70 44.54c-5.751.668-17.254 2.205-23.343 9.996-2.03 2.005-4.15 4.433-5.741 7.791-3.944 7.304-6.409 18.503-6.438 24.347l-.464-2.922V80.83l-1.566-9.223-3.044-8.02-3.045-4.01-5.075-6.015-4.06-3.007-4.06-2.005-2.319-1.318-5.8-1.69-4.06-1.002 8.12-2.005 8.12-4.01 8.119-7.018 5.074-8.02 2.03-5.012 2.059-15.066c1.015 5.012.996 8.887 1.972 12.66 1.914 4.01 1.502 6.36 2.958 8.764 1.916 3.166 2.87 5.27 5.915 8.278 2.726 2.693 7.188 6.11 11.338 8.278 4.554 2.38 9.77 2.451 13.31 3.15z" fill="#fff"/></svg>