<svg width="36" height="47" fill="none" xmlns="http://www.w3.org/2000/svg"><path fill-rule="evenodd" clip-rule="evenodd" d="M18 2.743l-.521 4.281C16.457 15.416 10.184 22.12 2.06 23.5c8.123 1.381 14.396 8.084 15.418 16.476l.521 4.28.521-4.28c1.022-8.392 7.295-15.095 15.418-16.476-8.123-1.381-14.396-8.084-15.418-16.476L18 2.744zm-1.169 4.198L17.676 0h.648l.845 6.94c.986 8.104 7.046 14.574 14.891 15.901l1.94.328v.662l-1.94.328c-7.845 1.327-13.905 7.797-14.891 15.9L18.324 47h-.648l-.845-6.94c-.986-8.104-7.046-14.574-14.891-15.901L0 23.83v-.662l1.94-.328c7.845-1.327 13.905-7.797 14.891-15.9z" fill="#fff"/></svg>