<svg width="1146" height="1512" fill="none" xmlns="http://www.w3.org/2000/svg"><g filter="url(#filter0_dddddd_223_218)" fill="#fff"><path d="M809.056 703.391h-107.59V888h107.59V703.391zm-107.59 0L624 664.174v183.622L701.466 888V703.391zM887 664.174l-77.944 39.217V888L887 847.796V664.174z" fill-opacity=".1"/><path d="M701.466 703.391h107.59L887 664.174 809.056 624h-107.59L624 664.174l77.466 39.217z" fill-opacity=".1"/><path d="M809.056 888v.5c.08 0 .159-.019.23-.056l-.23-.444zm-107.59 0l-.231.444c.071.037.15.056.231.056v-.5zM887 664.174h.5a.5.5 0 00-.271-.444l-.229.444zm-263 0l-.23-.444a.5.5 0 00-.27.444h.5zM701.466 624v-.5a.502.502 0 00-.231.056l.231.444zm107.59 0l.229-.444a.49.49 0 00-.229-.056v.5zM887 847.796l.229.445a.502.502 0 00.271-.445h-.5zm-263 0h-.5a.5.5 0 00.27.444l.23-.444zm77.466-143.905h107.59v-1h-107.59v1zM809.056 887.5h-107.59v1h107.59v-1zm.225-183.662l77.944-39.217-.45-.894-77.943 39.218.449.893zM623.774 664.62l77.466 39.217.451-.892-77.465-39.217-.452.892zm.456-.002l77.466-40.174-.461-.888-77.465 40.174.46.888zm77.236-40.118h107.59v-1h-107.59v1zm107.361-.056l77.944 40.174.458-.888-77.944-40.174-.458.888zm-107.861 78.947V888h1V703.391h-1zM809.556 888V703.391h-1V888h1zM623.5 664.174v183.622h1V664.174h-1zm.27 184.066l77.465 40.204.461-.888-77.466-40.204-.46.888zm185.516 40.204l77.943-40.203-.458-.889-77.944 40.204.459.888zm77.214-224.27v91.811h1v-91.811h-1zm0 91.811v91.811h1v-91.811h-1z"/></g><g filter="url(#filter1_ddd_223_218)" fill="#fff"><path d="M821.718 680.043H684.673V915h137.045V680.043zm-137.045 0L586 630.13v233.701L684.673 915V680.043zM921 630.13l-99.282 49.913V915L921 863.831V630.13z" fill-opacity=".1"/><path d="M684.673 680.043h137.045L921 630.13 821.718 579H684.673L586 630.13l98.673 49.913z" fill-opacity=".1"/><path d="M821.718 915v.5c.08 0 .158-.019.229-.056l-.229-.444zm-137.045 0l-.23.444c.071.037.15.056.23.056v-.5zM921 630.13h.5a.5.5 0 00-.271-.444l-.229.444zm-335 0l-.23-.443a.498.498 0 00-.27.443h.5zM684.673 579v-.5a.498.498 0 00-.23.056l.23.444zm137.045 0l.229-.445a.505.505 0 00-.229-.055v.5zM921 863.831l.229.445a.501.501 0 00.271-.445h-.5zm-335 0h-.5a.5.5 0 00.27.444l.23-.444zm98.673-183.288h137.045v-1H684.673v1zM821.718 914.5H684.673v1h137.045v-1zm.225-234.01l99.282-49.913-.45-.893-99.281 49.913.449.893zm-236.169-49.913l98.673 49.913.452-.893-98.673-49.913-.452.893zm.456-.003l98.673-51.13-.46-.888-98.673 51.131.46.887zm98.443-51.074h137.045v-1H684.673v1zm136.816-.055l99.282 51.13.458-.889-99.282-51.131-.458.89zM684.173 680.043V915h1V680.043h-1zM822.218 915V680.043h-1V915h1zM585.5 630.13v233.701h1V630.13h-1zm.27 234.145l98.673 51.169.46-.888-98.673-51.168-.46.887zm236.177 51.169l99.282-51.168-.458-.889-99.282 51.169.458.888zM920.5 630.13v116.851h1V630.13h-1zm0 116.851v116.85h1v-116.85h-1z"/></g><g filter="url(#filter2_dddddd_223_218)"><path d="M615.531 909.703v-14.648h7.324v14.648h14.649v7.324h-14.649v14.649h-7.324v-14.649h-14.648v-7.324h14.648z" fill="#fff"/></g><g filter="url(#filter3_dddddd_223_218)"><path d="M871.518 519.176c-4.232 5.729-6.348 13.509-6.348 23.34 0 11.458-3.418 18.408-10.254 20.849 6.836 2.442 10.254 9.392 10.254 20.85 0 9.831 2.116 17.611 6.348 23.34h-9.034c-4.231-5.729-6.347-13.509-6.347-23.34 0-11.458-3.418-17.188-10.254-17.188v-7.324c6.836 0 10.254-5.729 10.254-17.187 0-9.831 2.116-17.611 6.347-23.34h9.034zm38.378 0c4.232 5.729 6.348 13.509 6.348 23.34 0 11.458 3.418 17.187 10.254 17.187v7.324c-6.836 0-10.254 5.73-10.254 17.188 0 9.831-2.116 17.611-6.348 23.34h-9.033c4.232-5.729 6.348-13.509 6.348-23.34 0-11.458 3.418-18.408 10.254-20.85-6.836-2.441-10.254-9.391-10.254-20.849 0-9.831-2.116-17.611-6.348-23.34h9.033z" fill="#fff"/></g><defs><filter id="filter0_dddddd_223_218" x=".798" y=".798" width="1509.4" height="1510.4" filterUnits="userSpaceOnUse" color-interpolation-filters="sRGB"><feFlood flood-opacity="0" result="BackgroundImageFix"/><feColorMatrix in="SourceAlpha" values="0 0 0 0 0 0 0 0 0 0 0 0 0 0 0 0 0 0 127 0" result="hardAlpha"/><feOffset/><feGaussianBlur stdDeviation="7.413"/><feColorMatrix values="0 0 0 0 1 0 0 0 0 1 0 0 0 0 1 0 0 0 0.2 0"/><feBlend in2="BackgroundImageFix" result="effect1_dropShadow_223_218"/><feColorMatrix in="SourceAlpha" values="0 0 0 0 0 0 0 0 0 0 0 0 0 0 0 0 0 0 127 0" result="hardAlpha"/><feOffset/><feGaussianBlur stdDeviation="14.826"/><feColorMatrix values="0 0 0 0 1 0 0 0 0 1 0 0 0 0 1 0 0 0 0.2 0"/><feBlend in2="effect1_dropShadow_223_218" result="effect2_dropShadow_223_218"/><feColorMatrix in="SourceAlpha" values="0 0 0 0 0 0 0 0 0 0 0 0 0 0 0 0 0 0 127 0" result="hardAlpha"/><feOffset/><feGaussianBlur stdDeviation="51.892"/><feColorMatrix values="0 0 0 0 1 0 0 0 0 1 0 0 0 0 1 0 0 0 0.2 0"/><feBlend in2="effect2_dropShadow_223_218" result="effect3_dropShadow_223_218"/><feColorMatrix in="SourceAlpha" values="0 0 0 0 0 0 0 0 0 0 0 0 0 0 0 0 0 0 127 0" result="hardAlpha"/><feOffset/><feGaussianBlur stdDeviation="103.784"/><feColorMatrix values="0 0 0 0 1 0 0 0 0 1 0 0 0 0 1 0 0 0 0.2 0"/><feBlend in2="effect3_dropShadow_223_218" result="effect4_dropShadow_223_218"/><feColorMatrix in="SourceAlpha" values="0 0 0 0 0 0 0 0 0 0 0 0 0 0 0 0 0 0 127 0" result="hardAlpha"/><feOffset/><feGaussianBlur stdDeviation="177.915"/><feColorMatrix values="0 0 0 0 1 0 0 0 0 1 0 0 0 0 1 0 0 0 0.2 0"/><feBlend in2="effect4_dropShadow_223_218" result="effect5_dropShadow_223_218"/><feColorMatrix in="SourceAlpha" values="0 0 0 0 0 0 0 0 0 0 0 0 0 0 0 0 0 0 127 0" result="hardAlpha"/><feOffset/><feGaussianBlur stdDeviation="311.351"/><feColorMatrix values="0 0 0 0 1 0 0 0 0 1 0 0 0 0 1 0 0 0 0.2 0"/><feBlend in2="effect5_dropShadow_223_218" result="effect6_dropShadow_223_218"/><feBlend in="SourceGraphic" in2="effect6_dropShadow_223_218" result="shape"/></filter><filter id="filter1_ddd_223_218" x="421.801" y="414.801" width="663.399" height="664.399" filterUnits="userSpaceOnUse" color-interpolation-filters="sRGB"><feFlood flood-opacity="0" result="BackgroundImageFix"/><feColorMatrix in="SourceAlpha" values="0 0 0 0 0 0 0 0 0 0 0 0 0 0 0 0 0 0 127 0" result="hardAlpha"/><feOffset/><feGaussianBlur stdDeviation="11.693"/><feColorMatrix values="0 0 0 0 1 0 0 0 0 1 0 0 0 0 1 0 0 0 0.2 0"/><feBlend in2="BackgroundImageFix" result="effect1_dropShadow_223_218"/><feColorMatrix in="SourceAlpha" values="0 0 0 0 0 0 0 0 0 0 0 0 0 0 0 0 0 0 127 0" result="hardAlpha"/><feOffset/><feGaussianBlur stdDeviation="23.386"/><feColorMatrix values="0 0 0 0 1 0 0 0 0 1 0 0 0 0 1 0 0 0 0.2 0"/><feBlend in2="effect1_dropShadow_223_218" result="effect2_dropShadow_223_218"/><feColorMatrix in="SourceAlpha" values="0 0 0 0 0 0 0 0 0 0 0 0 0 0 0 0 0 0 127 0" result="hardAlpha"/><feOffset/><feGaussianBlur stdDeviation="81.85"/><feColorMatrix values="0 0 0 0 1 0 0 0 0 1 0 0 0 0 1 0 0 0 0.2 0"/><feBlend in2="effect2_dropShadow_223_218" result="effect3_dropShadow_223_218"/><feBlend in="SourceGraphic" in2="effect3_dropShadow_223_218" result="shape"/></filter><filter id="filter2_dddddd_223_218" x="177.523" y="471.695" width="883.341" height="883.341" filterUnits="userSpaceOnUse" color-interpolation-filters="sRGB"><feFlood flood-opacity="0" result="BackgroundImageFix"/><feColorMatrix in="SourceAlpha" values="0 0 0 0 0 0 0 0 0 0 0 0 0 0 0 0 0 0 127 0" result="hardAlpha"/><feOffset/><feGaussianBlur stdDeviation="5.04"/><feColorMatrix values="0 0 0 0 1 0 0 0 0 1 0 0 0 0 1 0 0 0 1 0"/><feBlend in2="BackgroundImageFix" result="effect1_dropShadow_223_218"/><feColorMatrix in="SourceAlpha" values="0 0 0 0 0 0 0 0 0 0 0 0 0 0 0 0 0 0 127 0" result="hardAlpha"/><feOffset/><feGaussianBlur stdDeviation="10.08"/><feColorMatrix values="0 0 0 0 1 0 0 0 0 1 0 0 0 0 1 0 0 0 1 0"/><feBlend in2="effect1_dropShadow_223_218" result="effect2_dropShadow_223_218"/><feColorMatrix in="SourceAlpha" values="0 0 0 0 0 0 0 0 0 0 0 0 0 0 0 0 0 0 127 0" result="hardAlpha"/><feOffset/><feGaussianBlur stdDeviation="35.28"/><feColorMatrix values="0 0 0 0 1 0 0 0 0 1 0 0 0 0 1 0 0 0 1 0"/><feBlend in2="effect2_dropShadow_223_218" result="effect3_dropShadow_223_218"/><feColorMatrix in="SourceAlpha" values="0 0 0 0 0 0 0 0 0 0 0 0 0 0 0 0 0 0 127 0" result="hardAlpha"/><feOffset/><feGaussianBlur stdDeviation="70.56"/><feColorMatrix values="0 0 0 0 1 0 0 0 0 1 0 0 0 0 1 0 0 0 1 0"/><feBlend in2="effect3_dropShadow_223_218" result="effect4_dropShadow_223_218"/><feColorMatrix in="SourceAlpha" values="0 0 0 0 0 0 0 0 0 0 0 0 0 0 0 0 0 0 127 0" result="hardAlpha"/><feOffset/><feGaussianBlur stdDeviation="120.96"/><feColorMatrix values="0 0 0 0 1 0 0 0 0 1 0 0 0 0 1 0 0 0 1 0"/><feBlend in2="effect4_dropShadow_223_218" result="effect5_dropShadow_223_218"/><feColorMatrix in="SourceAlpha" values="0 0 0 0 0 0 0 0 0 0 0 0 0 0 0 0 0 0 127 0" result="hardAlpha"/><feOffset/><feGaussianBlur stdDeviation="211.68"/><feColorMatrix values="0 0 0 0 1 0 0 0 0 1 0 0 0 0 1 0 0 0 1 0"/><feBlend in2="effect5_dropShadow_223_218" result="effect6_dropShadow_223_218"/><feBlend in="SourceGraphic" in2="effect6_dropShadow_223_218" result="shape"/></filter><filter id="filter3_dddddd_223_218" x="717.181" y="390.474" width="338.018" height="345.782" filterUnits="userSpaceOnUse" color-interpolation-filters="sRGB"><feFlood flood-opacity="0" result="BackgroundImageFix"/><feColorMatrix in="SourceAlpha" values="0 0 0 0 0 0 0 0 0 0 0 0 0 0 0 0 0 0 127 0" result="hardAlpha"/><feOffset/><feGaussianBlur stdDeviation="1.532"/><feColorMatrix values="0 0 0 0 1 0 0 0 0 1 0 0 0 0 1 0 0 0 1 0"/><feBlend in2="BackgroundImageFix" result="effect1_dropShadow_223_218"/><feColorMatrix in="SourceAlpha" values="0 0 0 0 0 0 0 0 0 0 0 0 0 0 0 0 0 0 127 0" result="hardAlpha"/><feOffset/><feGaussianBlur stdDeviation="3.064"/><feColorMatrix values="0 0 0 0 1 0 0 0 0 1 0 0 0 0 1 0 0 0 1 0"/><feBlend in2="effect1_dropShadow_223_218" result="effect2_dropShadow_223_218"/><feColorMatrix in="SourceAlpha" values="0 0 0 0 0 0 0 0 0 0 0 0 0 0 0 0 0 0 127 0" result="hardAlpha"/><feOffset/><feGaussianBlur stdDeviation="10.725"/><feColorMatrix values="0 0 0 0 1 0 0 0 0 1 0 0 0 0 1 0 0 0 1 0"/><feBlend in2="effect2_dropShadow_223_218" result="effect3_dropShadow_223_218"/><feColorMatrix in="SourceAlpha" values="0 0 0 0 0 0 0 0 0 0 0 0 0 0 0 0 0 0 127 0" result="hardAlpha"/><feOffset/><feGaussianBlur stdDeviation="21.45"/><feColorMatrix values="0 0 0 0 1 0 0 0 0 1 0 0 0 0 1 0 0 0 1 0"/><feBlend in2="effect3_dropShadow_223_218" result="effect4_dropShadow_223_218"/><feColorMatrix in="SourceAlpha" values="0 0 0 0 0 0 0 0 0 0 0 0 0 0 0 0 0 0 127 0" result="hardAlpha"/><feOffset/><feGaussianBlur stdDeviation="36.772"/><feColorMatrix values="0 0 0 0 1 0 0 0 0 1 0 0 0 0 1 0 0 0 1 0"/><feBlend in2="effect4_dropShadow_223_218" result="effect5_dropShadow_223_218"/><feColorMatrix in="SourceAlpha" values="0 0 0 0 0 0 0 0 0 0 0 0 0 0 0 0 0 0 127 0" result="hardAlpha"/><feOffset/><feGaussianBlur stdDeviation="64.351"/><feColorMatrix values="0 0 0 0 1 0 0 0 0 1 0 0 0 0 1 0 0 0 1 0"/><feBlend in2="effect5_dropShadow_223_218" result="effect6_dropShadow_223_218"/><feBlend in="SourceGraphic" in2="effect6_dropShadow_223_218" result="shape"/></filter></defs></svg>