<svg width="71" height="89" fill="none" xmlns="http://www.w3.org/2000/svg"><path fill-rule="evenodd" clip-rule="evenodd" d="M39.574 21.954a34.883 34.883 0 01-2.296-8.81L35.635 0h-1.26l-1.642 13.143a34.885 34.885 0 01-2.295 8.81c-9.29 1.873-16.553 9.342-18.119 18.739a34.891 34.891 0 01-8.546 2.56L0 43.874v1.252l3.773.622a34.89 34.89 0 018.546 2.56c1.566 9.397 8.829 16.866 18.119 18.738a34.883 34.883 0 012.295 8.81L34.376 89h1.26l1.642-13.143a34.883 34.883 0 012.296-8.81c9.29-1.873 16.552-9.342 18.118-18.739a34.891 34.891 0 018.547-2.56l3.772-.622v-1.252l-3.772-.622c-3-.494-5.865-1.364-8.547-2.56-1.566-9.397-8.829-16.866-18.118-18.738zm-4.568-16.76l-1.014 8.107a36.165 36.165 0 01-2.094 8.407 23.197 23.197 0 016.215 0 36.175 36.175 0 01-2.094-8.407l-1.013-8.106zm3.66 17.882a21.87 21.87 0 00-3.66-.307 21.87 21.87 0 00-3.662.307 36.143 36.143 0 01-4.714 7.975 15.768 15.768 0 018.376-2.393c3.075 0 5.945.876 8.375 2.393a36.143 36.143 0 01-4.714-7.975zm-8.851.317c-8.068 1.977-14.366 8.46-16.078 16.628a34.952 34.952 0 0016.078-16.628zM12.123 42.16a36.173 36.173 0 01-8.115 2.34 36.173 36.173 0 018.115 2.34 23.289 23.289 0 010-4.68zm1.349 5.28a21.934 21.934 0 010-5.88 36.133 36.133 0 007.81-4.978 15.77 15.77 0 00-2.118 7.918c0 2.884.77 5.589 2.117 7.918a36.13 36.13 0 00-7.809-4.978zm.265 1.54c1.712 8.168 8.01 14.65 16.078 16.627a34.952 34.952 0 00-16.078-16.628zm18.161 18.312a36.165 36.165 0 012.094 8.407l1.014 8.106 1.013-8.106a36.175 36.175 0 012.094-8.407 23.196 23.196 0 01-6.215 0zm6.769-1.368a21.87 21.87 0 01-3.661.307 21.87 21.87 0 01-3.662-.307 36.142 36.142 0 00-4.714-7.975 15.768 15.768 0 008.376 2.393c3.075 0 5.946-.876 8.375-2.393a36.141 36.141 0 00-4.714 7.975zm1.53-.317c8.067-1.977 14.365-8.46 16.077-16.628a34.952 34.952 0 00-16.078 16.628zm17.69-18.767a36.174 36.174 0 018.117-2.34 36.174 36.174 0 01-8.116-2.34 23.26 23.26 0 010 4.68zm-1.348-5.28a21.918 21.918 0 010 5.88 36.133 36.133 0 00-7.81 4.978 15.768 15.768 0 002.118-7.918c0-2.884-.77-5.589-2.117-7.918a36.135 36.135 0 007.81 4.978zm-.265-1.54a34.952 34.952 0 01-16.078-16.627c8.068 1.977 14.367 8.46 16.078 16.628zM35.006 59.074c8.048 0 14.572-6.525 14.572-14.573s-6.524-14.573-14.572-14.573c-8.049 0-14.573 6.525-14.573 14.573s6.524 14.573 14.573 14.573z" fill="#fff"/></svg>