<svg width="70" height="89" fill="none" xmlns="http://www.w3.org/2000/svg"><path fill-rule="evenodd" clip-rule="evenodd" d="M34.37 0l-1.642 13.143C30.81 28.487 19.027 40.74 3.772 43.253L0 43.872v1.253l3.772.622c15.255 2.513 27.038 14.766 28.956 30.11L34.37 89h1.26l1.642-13.143c1.918-15.344 13.701-27.596 28.956-30.11l3.772-.62v-1.253l-3.772-.622C50.973 40.74 39.19 28.487 37.272 13.143L35.63 0h-1.26zm-.383 13.3L35 5.196l1.013 8.106a36.1 36.1 0 006.675 16.84A16.21 16.21 0 0035 28.215c-2.78 0-5.398.697-7.688 1.925a36.1 36.1 0 006.675-16.84zm-13.595 24a36.088 36.088 0 01-16.385 7.2 36.087 36.087 0 0116.385 7.201 16.22 16.22 0 01-1.675-7.201c0-2.585.603-5.03 1.675-7.201zm6.92 21.56a36.1 36.1 0 016.675 16.84L35 83.805l1.013-8.106a36.1 36.1 0 016.675-16.84A16.209 16.209 0 0135 60.785a16.21 16.21 0 01-7.688-1.926zm22.296-7.158A36.087 36.087 0 0165.993 44.5a36.087 36.087 0 01-16.385-7.201 16.22 16.22 0 011.675 7.201c0 2.585-.603 5.03-1.675 7.201z" fill="#fff"/></svg>