<svg width="70" height="89" fill="none" xmlns="http://www.w3.org/2000/svg"><path fill-rule="evenodd" clip-rule="evenodd" d="M35 5.195L33.987 13.3C32 29.193 19.803 41.885 4.007 44.5c15.796 2.615 27.994 15.307 29.98 31.2L35 83.804l1.013-8.106C38 59.807 50.197 47.115 65.993 44.5c-15.796-2.615-27.994-15.307-29.98-31.2L35 5.196zm-2.272 7.948L34.37 0h1.26l1.642 13.143c1.918 15.344 13.701 27.596 28.956 30.11l3.772.62v1.253l-3.772.622C50.973 48.26 39.19 60.513 37.272 75.857L35.63 89h-1.26l-1.642-13.143C30.81 60.513 19.027 48.26 3.772 45.747L0 45.128v-1.253l3.772-.622c15.255-2.513 27.038-14.766 28.956-30.11z" fill="#fff"/><path fill-rule="evenodd" clip-rule="evenodd" d="M17.83 69.76c6.636-4.158 14.911-10.885 23.227-19.202 8.316-8.317 15.041-16.594 19.199-23.231 2.084-3.328 3.485-6.183 4.138-8.389.327-1.104.447-1.98.41-2.637-.038-.646-.22-.995-.417-1.192-.198-.198-.546-.38-1.193-.417-.657-.038-1.533.082-2.636.41-2.206.653-5.06 2.053-8.388 4.138-6.636 4.158-14.911 10.885-23.227 19.202-8.316 8.317-15.041 16.594-19.199 23.231-2.084 3.328-3.485 6.183-4.138 8.389-.327 1.103-.447 1.98-.41 2.637.038.647.22.995.417 1.192.198.198.546.38 1.193.417.657.038 1.533-.082 2.636-.41 2.206-.652 5.06-2.053 8.388-4.138zM4.716 74.789c3.84 3.841 20.513-6.606 37.238-23.334 16.725-16.728 27.17-33.402 23.33-37.244-3.84-3.841-20.513 6.606-37.238 23.334C11.32 54.273.876 70.948 4.716 74.789z" fill="#fff"/><path fill-rule="evenodd" clip-rule="evenodd" d="M9.744 27.327c4.158 6.637 10.883 14.914 19.2 23.23 8.315 8.318 16.59 15.045 23.226 19.203 3.327 2.085 6.182 3.486 8.388 4.139 1.103.327 1.98.447 2.636.41.647-.038.995-.22 1.193-.418.197-.197.38-.546.416-1.192.038-.657-.082-1.534-.409-2.637-.653-2.206-2.054-5.061-4.138-8.389-4.158-6.637-10.883-14.914-19.2-23.23-8.315-8.318-16.59-15.045-23.226-19.203-3.327-2.085-6.182-3.485-8.388-4.139-1.103-.327-1.98-.447-2.636-.409-.647.037-.995.22-1.193.417-.197.197-.38.546-.416 1.192-.038.657.082 1.534.409 2.637.653 2.206 2.054 5.061 4.138 8.389zM4.716 14.21c-3.84 3.841 6.604 20.516 23.33 37.244C44.77 68.183 61.443 78.63 65.284 74.79c3.84-3.841-6.605-20.516-23.33-37.244C25.23 20.817 8.557 10.37 4.716 14.21z" fill="#fff"/></svg>