<svg width="70" height="89" fill="none" xmlns="http://www.w3.org/2000/svg"><path fill-rule="evenodd" clip-rule="evenodd" d="M35 5.195L33.987 13.3C32 29.193 19.803 41.885 4.007 44.5c15.796 2.615 27.994 15.307 29.98 31.2L35 83.804l1.013-8.106C38 59.807 50.197 47.115 65.993 44.5c-15.796-2.615-27.994-15.307-29.98-31.2L35 5.196zm-2.272 7.948L34.37 0h1.26l1.642 13.143c1.918 15.344 13.701 27.596 28.956 30.11l3.772.62v1.253l-3.772.622C50.973 48.26 39.19 60.513 37.272 75.857L35.63 89h-1.26l-1.642-13.143C30.81 60.513 19.027 48.26 3.772 45.747L0 45.128v-1.253l3.772-.622c15.255-2.513 27.038-14.766 28.956-30.11z" fill="#fff"/></svg>