<svg width="512" height="491" fill="none" xmlns="http://www.w3.org/2000/svg"><g filter="url(#filter0_ddd_437_189)"><path fill-rule="evenodd" clip-rule="evenodd" d="M269.675 150.794c-.282 1.409-1.919 4.441-3.12 5.781-1.531 1.708-3.828 3.212-6.094 3.993-1.577.543-2.184.628-4.461.628-2.241 0-2.894-.089-4.355-.593-.946-.327-2.175-.853-2.732-1.17-2.669-1.518-5.215-4.591-6.237-7.529-.322-.927-.602-1.426-.707-1.26-.287.451-.196 3.374.158 5.043 1.088 5.132 5.334 9.486 10.54 10.81 1.967.499 4.934.446 7.004-.128 2.563-.71 4.251-1.701 6.202-3.642 2.785-2.773 4.028-5.479 4.245-9.246.067-1.158.03-2.415-.081-2.793l-.202-.688-.16.794zm-17.343 33.377c-.567.051-2.321.253-3.896.447-13.006 1.607-25.223 7.62-34.539 16.998-8.899 8.959-14.396 19.706-16.624 32.502-.705 4.046-.764 14.094-.107 18.205 2.401 15.022 9.898 28.125 21.355 37.327 8.693 6.98 17.625 10.903 29.112 12.783 3.587.587 13.143.587 16.734.001 13.768-2.25 25.293-8.148 34.387-17.599 8.62-8.959 14.048-19.937 16.076-32.512.648-4.02.598-13.863-.092-18.036-2.102-12.709-7.775-23.807-16.748-32.768-9.344-9.33-21.237-15.192-34.311-16.911-2.735-.359-9.377-.615-11.347-.437zm6.877 1.466c8.085.486 14.774 2.205 21.945 5.642 14.877 7.128 26.25 20.604 30.679 36.35 1.676 5.962 2.295 11.268 2.091 17.934-.153 4.968-.547 7.858-1.671 12.245-2.744 10.711-7.999 19.72-16.05 27.518-7.954 7.703-17.65 12.816-28.627 15.097-3.328.691-5.694.948-10.086 1.092-15.418.509-30.503-5.338-41.643-16.14-5.317-5.155-8.783-9.883-11.883-16.208-3.247-6.626-5.109-13.037-5.725-19.709-1.598-17.3 3.935-33.434 15.766-45.976 6.173-6.544 15.006-12.144 23.771-15.07 4.343-1.45 9.83-2.501 14.442-2.766 1.639-.094 3.031-.185 3.094-.203.063-.018 1.817.07 3.897.194zm-38.878 2.385c-3.086 1.348-4.006 1.928-7.051 4.443-7.551 6.236-14.2 15.107-18.327 24.452-5.699 12.908-7.046 28.333-3.689 42.27 3.452 14.334 11.754 27.33 23.308 36.487 2.078 1.647 2.956 2.167 5.557 3.29 1.699.733 3.148 1.275 3.219 1.204.072-.072-.713-.631-1.743-1.243-2.505-1.488-6.951-4.864-9.564-7.263-10.309-9.462-17.337-21.919-19.997-35.443-.796-4.044-1.157-7.93-1.162-12.49-.012-10.511 2.119-19.834 6.6-28.875 5.735-11.57 13.869-20.361 25.509-27.568 1.36-.842.247-.534-2.66.736zm69.021-.509c11.715 7.429 19.506 15.914 25.103 27.341 3.281 6.698 5.102 12.594 6.192 20.052.411 2.815.551 11.543.237 14.833a65.52 65.52 0 01-9.536 28.251c-2.482 4.006-5.339 7.548-9.261 11.479-4.536 4.546-7.536 6.924-12.542 9.941-.736.444-1.161.808-.945.808.823.001 6.222-2.557 7.589-3.595 12.558-9.542 21.341-23.18 24.767-38.456 1.26-5.623 1.402-7.092 1.404-14.552.001-7.692-.275-10.251-1.742-16.114-3.419-13.66-11.222-26.14-21.901-35.026-3.018-2.511-3.849-3.032-7.067-4.435-3.268-1.426-3.968-1.586-2.298-.527zm-35.988 3.756c-7.515.71-12.01 1.721-17.192 3.867-15.765 6.527-27.361 20.182-31.149 36.677-2.07 9.015-1.68 18.691 1.113 27.614 2.526 8.07 7.442 15.935 13.681 21.886 7.935 7.568 17.575 12.289 28.619 14.014 3.669.573 11.459.573 15.128 0 11.879-1.856 22.46-7.374 30.484-15.9 12.983-13.796 17.456-33.211 11.867-51.51-5.342-17.49-20.462-31.443-38.339-35.381-4.192-.924-11.219-1.55-14.212-1.267zm11.69 2.15c14.653 2.903 26.681 11.155 34.434 23.626 2.941 4.731 5.31 10.856 6.466 16.715 3.22 16.326-1.853 33.374-13.461 45.236-4.347 4.442-8.761 7.618-14.373 10.341-4.928 2.391-9.355 3.77-14.807 4.614-3.608.559-11.018.559-14.626 0-5.431-.84-9.836-2.212-14.807-4.61-16.081-7.759-26.828-23.137-28.567-40.876-.357-3.648-.136-9.971.469-13.419.891-5.068 2.14-8.963 4.344-13.546 2.592-5.388 5.576-9.565 9.995-13.989 7.363-7.373 16.484-12.152 26.825-14.058 3.582-.66 3.751-.67 9.971-.598 4.662.053 6.044.149 8.137.564zm-14.785 5.297c-6.833.765-14.738 3.894-20.681 8.187-12.262 8.856-19.192 22.991-18.673 38.087.267 7.751 2.009 14.121 5.607 20.51 6.949 12.339 18.742 20.527 32.737 22.728 3.072.483 9.853.543 12.816.113 8.021-1.165 15.866-4.515 21.962-9.377 16.886-13.469 21.959-36.796 12.174-55.974-5.444-10.67-15.216-18.937-26.654-22.549-4.205-1.328-7.1-1.761-12.411-1.856-2.71-.048-5.805.011-6.877.131zm14.26 1.896c8.729 1.811 16.298 5.877 22.42 12.043 12.028 12.115 15.946 29.571 10.266 45.741-.814 2.318-3.041 6.765-4.475 8.937-5.562 8.425-13.439 14.545-22.757 17.683-20.94 7.051-43.79-2.572-53.413-22.495-2.193-4.539-3.483-9.015-4.147-14.384-.397-3.207-.12-9.492.568-12.887 3.565-17.595 16.997-31.118 34.362-34.592 3.883-.777 3.823-.772 9.335-.708 4.294.05 5.303.135 7.841.662zm-68.057.716c-1.577 1.062-2.226 1.903-4.406 5.712-5.307 9.274-8.504 19.544-9.449 30.354-.364 4.171-.116 12.63.488 16.648 1.569 10.43 5.096 20.059 10.475 28.598 1.006 1.596 1.553 2.207 2.636 2.942.751.51 1.405.889 1.453.842.047-.048-.612-1.114-1.465-2.37-11.579-17.052-15.269-38.186-10.202-58.429 1.857-7.421 5.436-15.435 9.831-22.014 1.073-1.606 1.917-2.953 1.877-2.993-.04-.041-.598.279-1.238.71zm117.752-.695c0 .07.656 1.081 1.457 2.247 6.296 9.153 10.517 20.234 11.97 31.423.571 4.39.677 11.722.235 16.135-.924 9.221-3.225 17.263-7.226 25.26-1.554 3.106-3.896 7.063-5.55 9.376-.488.683-.843 1.285-.79 1.339.054.053.715-.323 1.471-.835 1.123-.763 1.628-1.34 2.778-3.172 1.852-2.95 4.516-8.237 5.807-11.521 3.332-8.482 4.907-16.206 5.139-25.208.239-9.274-.877-16.977-3.702-25.542-2.117-6.419-6.655-15.363-8.958-17.656-1.052-1.047-2.631-2.155-2.631-1.846zm-63.251 5.189c-17.145 2.218-30.918 16.286-32.783 33.487-2.08 19.172 10.261 36.736 28.946 41.198 17.475 4.172 35.364-4.332 43.132-20.507 3.734-7.775 4.738-16.843 2.779-25.109-3.666-15.48-16.571-27.112-32.259-29.079-2.199-.275-7.653-.27-9.815.01zm10.936 1.585c15.4 2.512 27.386 14.383 30.219 29.929.631 3.461.583 9.481-.103 12.907-2.381 11.893-9.749 21.395-20.552 26.506-4.857 2.297-9.827 3.384-15.473 3.384-5.646 0-10.616-1.087-15.473-3.384-13.368-6.324-21.705-19.891-21.135-34.395.611-15.564 10.407-28.647 25.135-33.569 5.452-1.822 11.648-2.313 17.382-1.378zm-79.366 4.604c-1.06.931-1.446 1.699-2.632 5.249-1.91 5.714-3.055 10.637-3.841 16.5-.647 4.834-.584 15.61.119 20.396.94 6.401 2.295 11.851 4.295 17.281.947 2.571 1.157 2.945 2.067 3.691.592.484 1.013.701 1.013.521 0-.17-.37-1.182-.822-2.25-2.596-6.132-4.559-13.913-5.402-21.421-.391-3.485-.397-13.591-.01-16.957a82.205 82.205 0 015.252-20.925c.567-1.426.979-2.644.916-2.707-.063-.064-.493.216-.955.622zm146.702 1.702c2.578 6.151 4.489 13.701 5.421 21.422.378 3.126.381 13.57.005 16.844-.908 7.909-3.038 15.971-6.101 23.089-.203.472-.291.855-.195.849.096-.005.613-.394 1.149-.864.861-.758 1.105-1.219 2.128-4.029 3.008-8.258 4.526-16.375 4.742-25.347.234-9.776-.88-17.695-3.758-26.698-1.472-4.606-2.081-5.968-3.065-6.857-.499-.451-1.004-.82-1.122-.82-.118 0 .24 1.085.796 2.411zm-76.225-.478c-5.23 1.106-9.453 4.378-11.609 8.994-1.207 2.586-1.522 4.304-1.395 7.636.093 2.471.205 3.125.811 4.76 3.421 9.222 14.105 13.319 22.751 8.723 3.772-2.005 6.414-5.202 7.92-9.588.352-1.023.431-1.907.424-4.697-.009-3.15-.062-3.58-.628-5.132-1.463-4.009-4.006-6.997-7.665-9.008-3.017-1.659-7.427-2.36-10.609-1.688zm-81.182 8.552c-.686.759-.851 1.21-1.404 3.838-1.116 5.313-1.575 9.598-1.705 15.927-.162 7.866.423 14.304 1.885 20.736.499 2.192.675 2.62 1.367 3.311.437.437.839.748.894.692.056-.057-.145-1.083-.445-2.281-1.714-6.848-2.536-14.987-2.312-22.913.193-6.864.816-11.713 2.303-17.936.293-1.229.457-2.234.364-2.234-.094 0-.52.387-.947.86zm167.234-.494c.572 1.491 2.009 9.081 2.469 13.04.388 3.343.391 15.028.005 18.334-.415 3.561-1.102 7.501-1.87 10.738-.363 1.529-.616 2.824-.563 2.878.154.153 1.255-.952 1.579-1.585.427-.835 1.413-5.747 2.002-9.969.44-3.162.511-4.691.519-11.114.008-8.131-.149-9.905-1.525-17.168-.667-3.519-.764-3.817-1.508-4.64-.82-.908-1.355-1.156-1.108-.514zm-176.337 9.832c-.395.45-.718.943-.718 1.097 0 .153-.111 1.412-.247 2.799-.337 3.443-.33 13.301.011 17.059.245 2.699.352 3.175.858 3.839.61.799.983.968.983.444 0-.173-.171-1.849-.38-3.724-.535-4.8-.526-13.485.019-18.374.228-2.054.365-3.785.304-3.846-.061-.061-.435.257-.83.706zm185.65-.431c-.004.268.163 2.021.37 3.896.521 4.717.515 13.029-.013 18.013-.224 2.107-.363 3.961-.31 4.12.055.164.401-.133.805-.689.575-.793.745-1.312.899-2.746.25-2.313.247-16.769-.004-19.384-.179-1.867-.258-2.102-.968-2.865-.682-.733-.774-.773-.779-.345zM154.51 240.709c-.446.655-.515 1.048-.51 2.92.006 2.056.04 2.202.682 2.965l.675.802.006-3.724c.004-2.048-.071-3.723-.165-3.722-.095 0-.405.342-.688.759zm202.127 2.963l.006 3.724.675-.802c.642-.763.676-.909.682-2.965.005-1.872-.064-2.265-.51-2.92-.283-.417-.593-.759-.688-.759-.094-.001-.169 1.674-.165 3.722zM253.135 320.53c-5.554 1.162-9.982 5.594-11.022 11.03-.35 1.829-.404 4.241-.112 4.982.155.392.205.343.349-.344.49-2.324 2.618-5.538 4.826-7.29 2.616-2.075 5.382-3.023 8.824-3.023 3.866 0 6.733 1.124 9.541 3.741 1.895 1.765 3.075 3.549 3.854 5.821l.531 1.553.175-.891c.441-2.256-.489-6.695-1.867-8.91-2.212-3.555-5.517-5.873-9.531-6.685-2.134-.432-3.448-.428-5.568.016z" fill="#fff"/></g><defs><filter id="filter0_ddd_437_189" x=".461" y="-3.539" width="511.077" height="494.077" filterUnits="userSpaceOnUse" color-interpolation-filters="sRGB"><feFlood flood-opacity="0" result="BackgroundImageFix"/><feColorMatrix in="SourceAlpha" values="0 0 0 0 0 0 0 0 0 0 0 0 0 0 0 0 0 0 127 0" result="hardAlpha"/><feOffset/><feGaussianBlur stdDeviation="10.967"/><feColorMatrix values="0 0 0 0 1 0 0 0 0 1 0 0 0 0 1 0 0 0 1 0"/><feBlend in2="BackgroundImageFix" result="effect1_dropShadow_437_189"/><feColorMatrix in="SourceAlpha" values="0 0 0 0 0 0 0 0 0 0 0 0 0 0 0 0 0 0 127 0" result="hardAlpha"/><feOffset/><feGaussianBlur stdDeviation="21.934"/><feColorMatrix values="0 0 0 0 1 0 0 0 0 1 0 0 0 0 1 0 0 0 1 0"/><feBlend in2="effect1_dropShadow_437_189" result="effect2_dropShadow_437_189"/><feColorMatrix in="SourceAlpha" values="0 0 0 0 0 0 0 0 0 0 0 0 0 0 0 0 0 0 127 0" result="hardAlpha"/><feOffset/><feGaussianBlur stdDeviation="76.769"/><feColorMatrix values="0 0 0 0 1 0 0 0 0 1 0 0 0 0 1 0 0 0 1 0"/><feBlend in2="effect2_dropShadow_437_189" result="effect3_dropShadow_437_189"/><feBlend in="SourceGraphic" in2="effect3_dropShadow_437_189" result="shape"/></filter></defs></svg>