<svg width="533" height="518" fill="none" xmlns="http://www.w3.org/2000/svg"><g filter="url(#filter0_ddd_437_190)" clip-path="url(#clip0_437_190)"><path fill-rule="evenodd" clip-rule="evenodd" d="M249.066 139.179c-6.029.75-11.763 3.474-17.714 8.414-3.322 2.758-17.038 15.505-20.244 18.815-5.437 5.612-7.433 10.319-6.736 15.882.242 1.932.803 2.647 2.148 2.738 1.175.078 1.139 0 1.623 3.655 1.071 8.093-1.866 35.762-5.418 51.036-3.051 13.119-7.159 22.724-13.688 32.002-2.609 3.706-3.037 4.522-3.037 5.788 0 2.461 1.892 4.436 5.826 6.082 2.787 1.166 4.827 2.403 5.244 3.18.206.385.11.744-.402 1.496-.657.967-1.17 2.538-.913 2.795.071.071 1.33.546 2.798 1.056 3.333 1.158 6.024 2.738 8.333 4.893 2.683 2.504 3.694 4.03 4.312 6.509.919 3.689 2.812 7.142 6.011 10.961l1.387 1.655-.743.411c-.483.267-1.517.412-2.955.414-2.606.003-3.836-.551-4.682-2.108-.469-.863-.49-1.089-.172-1.853.412-.994 1.324-1.346 2.231-.862.432.231.694.239.904.03.398-.397-.477-1.364-1.704-1.881-3.462-1.462-7.482 3.383-5.684 6.85.446.862 1.827 1.62 2.95 1.62.35 0 1.124.331 1.721.735.596.405 1.439.808 1.873.897l.788.161-1.601 1.33c-3.563 2.959-6.212 6.863-6.589 9.712-.245 1.851.135 3.179 2.09 7.304 1.408 2.968 1.675 3.794 1.923 5.931.413 3.547.773 4.896 1.695 6.347l.812 1.277-1.226 2.175c-4.024 7.138-4.498 12.661-1.473 17.19 1.085 1.626 4.62 4.518 7.089 5.8 3.27 1.698 5.321 1.807 8.895.473 3.937-1.47 5.432-3.267 5.129-6.165-.197-1.878-.029-2.298 1.643-4.099 1.739-1.873 1.94-3.702.612-5.563-1.434-2.009-5.403-2.109-5.663-.142-.089.664-.013.738.728.717 1.163-.033 1.676.496 1.676 1.728 0 1.983-1.968 3.573-4.422 3.573-3.528 0-6.363-3.314-6.884-8.049-.214-1.938-.045-4.764.38-6.365.155-.586.104-.759-.224-.759-1.216 0-1.345 7.59-.18 10.619.802 2.087 3.178 4.553 4.864 5.048 3.685 1.082 7.296-1.005 7.296-4.217 0-1.163-1.001-2.343-1.993-2.35-.511-.004-.554-.056-.22-.272 1.209-.779 3.574.005 4.312 1.429.73 1.408.381 2.78-1.111 4.371-1.603 1.71-1.81 2.267-1.619 4.364.218 2.398-.556 3.529-3.306 4.834-4.996 2.371-7.401 1.952-13.248-2.308-4.198-3.058-5.751-7.424-4.508-12.68.483-2.048 2.358-6.109 3.779-8.191.977-1.43 1.008-1.79.182-2.093-.837-.307-1.686-2.632-2.077-5.683-.462-3.607-.862-4.884-2.643-8.424-2.124-4.221-2.106-6.084.091-9.721 1.906-3.155 6.693-7.258 10.437-8.946.778-.351 1.415-.802 1.415-1.003 0-.535-.279-.467-2.607.636-2.891 1.37-4.278 1.503-5.551.535-.582-.443-1.554-.834-2.408-.968-1.825-.288-2.431-.977-2.431-2.764 0-2.13 2.029-4.424 3.913-4.424.919 0 1.049.432.21.697-.9.285-1.436 1.85-1.082 3.16.776 2.877 5.813 4.243 9.232 2.505l.986-.502.895 1.391c.907 1.409 1.86 3.791 1.876 4.689.005.27.196.563.424.65.228.087.414.301.412.474-.006.697-1.445 3.341-2.653 4.875-.765.972-1.218 1.796-1.123 2.043.106.276-.254.712-1.072 1.298-.678.486-1.233 1.048-1.233 1.25 0 .202.062.367.138.367.077 0 1.29-.792 2.696-1.761 5.09-3.503 9.56-5.322 16.662-6.78 2.281-.468 4.825-1.045 5.652-1.282 2.634-.754 5.29-2.276 6.987-4.006 1.432-1.46 1.573-1.544 1.434-.85-.123.613.14 1.209 1.287 2.92 2.408 3.592 6.004 6.187 12.367 8.924 4.971 2.139 7.047 2.645 10.276 2.504 2.154-.094 2.937-.255 4.201-.861 3.205-1.536 5.456-4.668 7.129-9.915.992-3.113 1.008-3.238.414-3.238-.283 0-.386-.152-.285-.417 1.306-3.393.761-12.233-1.121-18.184-1.308-4.139-4.103-8.744-5.938-9.785-.43-.244-.782-.598-.783-.788-.003-.619-.498-.364-1.069.552-.707 1.133-3.29 3.677-3.51 3.457-.091-.091.414-.699 1.123-1.351 1.441-1.324 2.545-3.193 2.131-3.606-.165-.164-.522.18-.965.93-.388.655-1.089 1.556-1.56 2.003l-.857.812.183-1.364c.101-.75.306-1.411.456-1.469.15-.058.734-.52 1.298-1.028l1.024-.924.665.708c.365.389 1.722 1.207 3.015 1.818 1.293.611 2.628 1.364 2.965 1.673.339.308.941 1.567 1.339 2.796.89 2.751 2.149 4.866 4.035 6.778 1.425 1.443 3.725 3.081 4.797 3.415.508.158.545.372.464 2.659-.149 4.167 1.401 7.981 4.631 11.398 3.106 3.286 7.847 5.834 13.502 7.258 1.485.375 2.005.625 2.005.966 0 .575 1.873 3.118 4.076 5.532.924 1.012 1.762 2.101 1.864 2.421.102.321.332.549.512.508.179-.041 1.383.746 2.675 1.749 2.907 2.259 4.739 3.428 7.666 4.895 2.435 1.221 2.846 1.336 2.831.796-.005-.19-.952-.774-2.103-1.298l-2.095-.954.128-1.131c.112-.987 2.417-6.447 3.02-7.151.298-.348 1.995 3.417 2.548 5.654.346 1.4.445 3.185.435 7.863l-.013 6.051-.671-1.241c-.924-1.709-1.793-4.531-1.793-5.822 0-1.088-.426-1.448-.742-.627-.296.768.41 3.701 1.38 5.738.511 1.074 2.957 5.216 5.435 9.204 3.608 5.806 4.534 7.497 4.645 8.483.172 1.52.585 1.569 1.665.197 1.173-1.488 1.623-2.475 1.998-4.373.576-2.921-.67-6.351-3.195-8.8l-1.177-1.141 1.148-.316c1.875-.516 2.93-1.333 3.563-2.757.564-1.269.567-1.351.114-3.078-.713-2.722-2.324-4.432-4.173-4.432-.931 0-.891.431.119 1.279.991.832 1.529 2.438 1.272 3.804-.223 1.186-1.49 2.714-2.647 3.192-1.225.506-3.838.238-5.065-.518l-1.021-.63v-5.037c0-5.95-.397-7.986-2.321-11.884-1.114-2.258-1.225-2.67-1.233-4.552-.015-3.913-1.652-7.486-4.965-10.839-1.409-1.426-4.265-3.692-4.955-3.931-.035-.011.08-.784.254-1.717.744-3.992-.913-8.113-4.88-12.136-1.772-1.797-2.392-2.59-2.095-2.679.233-.07 1.278-.261 2.324-.424 4.544-.709 5.962-2.228 5.974-6.4.008-2.852-.419-4.658-1.47-6.218-.707-1.05-1.351-1.548-3.364-2.602-2.966-1.552-4.286-2.841-4.286-4.185v-.93l1.729-.174c2.561-.256 4.972-1.566 6.603-3.588 1.369-1.696 6.224-11.562 7.195-14.618 1.021-3.212.606-4.555-2.788-9.031-2.315-3.053-5.549-8.149-5.549-8.744 0-.146.826-.748 1.835-1.337s2.238-1.541 2.732-2.117c1.051-1.224 1.655-3.107 1.409-4.392-.228-1.192-1.411-3.706-2.275-4.837-1.093-1.429-1.928-1.709-5.409-1.812-2.721-.081-3.312-.187-4.514-.808-1.489-.769-3.3-2.517-4.219-4.072-1.948-3.292-2.012-9.07-.17-15.39.24-.825 1.07-3.006 1.844-4.848 2.253-5.361 2.02-6.957-1.702-11.625-1.089-1.365-2.3-3.149-2.692-3.963-.488-1.015-.802-1.391-.997-1.197-.458.458.89 2.961 3.023 5.613 2.516 3.128 2.982 4.098 2.96 6.168-.014 1.299-.261 2.219-1.147 4.276-2.308 5.359-3.399 9.852-3.399 14 0 4.657 1.119 7.552 3.915 10.135 2.083 1.923 3.617 2.443 7.368 2.497 2.38.033 2.97.131 3.591.594 1.383 1.03 3.101 4.506 3.101 6.273 0 1.504-1.57 3.565-3.595 4.717-.343.196-.356.164-.072-.185.689-.85 1.207-2.836 1.023-3.924-.31-1.829-1.75-3.088-5.621-4.913-4.227-1.993-6.564-3.523-8.838-5.789-3.239-3.226-4.81-6.711-5.36-11.888-.343-3.222-.192-5.725.901-14.965.323-2.731.544-5.872.491-6.979-.109-2.296.106-2.225 1.362.451 1.049 2.234 1.451 4.081 1.455 6.677.003 2.756-.529 5.035-1.669 7.134-.916 1.688-.978 1.958-.446 1.958.204 0 .765-.807 1.248-1.794 2.773-5.675 2.138-12.151-1.687-17.193l-1.324-1.745 1.101-1.248c2.235-2.534 4.692-3.952 6.847-3.952.642 0 .919-.113.843-.345-.33-.998-3.587-.172-5.815 1.474-.845.625-2.505 2.31-3.688 3.744-1.183 1.434-2.619 3.03-3.191 3.545-2.306 2.079-4.926 2.73-7.915 1.965-2.259-.577-3.67-1.314-8.223-4.295-6.499-4.255-9.77-4.929-14.168-2.921-3.624 1.656-6.268 5.009-9.506 12.057-6.377 13.88-12.934 23.172-31.208 44.227-16.663 19.199-20.257 24.096-21.459 29.243-.876 3.752.062 7.26 2.626 9.817.93.928 1.989 1.69 2.651 1.906 2.148.703 2.284.891 2.024 2.792-.319 2.326-.962 4.696-1.765 6.508-.373.841-.678 1.625-.678 1.743 0 .117-.433.856-.963 1.642-1.024 1.517-2.079 4.488-2.079 5.854v.823l-1.064-1.335c-2.851-3.577-7.014-6.428-11.242-7.698-.912-.275-1.77-.593-1.906-.708-.32-.271.275-1.71.964-2.332.29-.262.528-.706.528-.986 0-.962-2.118-2.614-4.913-3.833-3.861-1.685-5.223-2.628-6.035-4.179-.773-1.475-.511-2.764 1.007-4.959 5.697-8.239 8.096-12.617 10.858-19.815 4.454-11.607 7.058-25.118 9.585-49.719.769-7.492.711-15.028-.148-19.027-.141-.655-.026-.812.976-1.322.983-.5 2.216-1.92 2.219-2.555.002-.454-.803-.172-.965.337-.387 1.217-2.957 2.42-4.398 2.059-.925-.232-1.273-1.354-1.273-4.112 0-4.76 1.757-8.193 6.899-13.486 2.987-3.074 15.298-14.56 19.003-17.729 9.598-8.211 16.967-10.32 29.682-8.493 16.67 2.394 33.501 9.998 46.733 21.113 1.75 1.469 3.799 3.304 4.554 4.077.754.773 1.563 1.406 1.797 1.406.339.001.553.909 1.055 4.495 1.178 8.403 2.701 13.882 5.326 19.166 2.249 4.525 5.521 9.165 5.521 7.828 0-.155-.807-1.468-1.792-2.918-4.575-6.732-6.865-13.61-8.477-25.468-.441-3.246-.711-4.483-.978-4.483-.202 0-.368.208-.368.462 0 .293-.78-.291-2.143-1.605-9.434-9.094-22.129-16.663-35.328-21.064-9.727-3.242-21.288-5.034-27.499-4.261zm28.222 44.404c2.016.379 4.758 1.729 8.393 4.13 3.721 2.459 5.627 3.44 7.754 3.993 2.071.538 2.986.535 4.857-.02 1.674-.495 2.636-1.081 4.268-2.603 2.924-2.726 3.654-1.107 2.893 6.417-.423 4.175-.336 3.98-1.995 4.464-1.879.549-2.578 1.062-3.258 2.393-.305.597-.619 1.085-.698 1.085-.078 0-.013-.24.145-.534.371-.693.36-.847-.06-.841-.507.007-2.504 3.884-2.172 4.215.257.257 1.408-1.254 1.41-1.852.001-.139.069-.185.152-.103.082.083-.066.601-.329 1.152-.775 1.621-.201 1.767 1.867.474.972-.607 2.235-1.298 2.805-1.536l1.037-.431-.002.763c-.001.419-.079 1.58-.174 2.58l-.172 1.819-1.969-.109c-2.059-.113-4.794.407-4.654.886.044.152.355.24.691.197.336-.044 1.813-.135 3.281-.203l2.669-.124.195 1.668c.106.918.149 1.705.095 1.75-.054.044-.501.157-.994.251-.63.12-.877.07-.83-.167.098-.498-1.942-.568-3.252-.113-.736.256-1.106.55-1.107.88-.001.329-.367.622-1.088.871-1.196.413-2.154 1.148-1.942 1.49.075.121-.115.298-.421.395-.307.097-.558.355-.558.572 0 .513-.123.544 2.294-.57 2.406-1.109 2.839-1.157 3.79-.414.38.297.785.542.899.546.404.011.2-.799-.277-1.098-.376-.237-.146-.278 1.037-.188.837.064 1.739.208 2.005.319.375.158.484.069.484-.394 0-.328.125-.52.277-.427.482.298.298 1.172-.277 1.322-.339.088-.553.376-.553.745 0 .362-.137.551-.345.478-.19-.068-.815.112-1.388.399-.905.452-1.004.593-.751 1.065.323.602 1.245.764 1.021.179-.184-.478.701-1.018 1.379-.841.383.1.627-.071.874-.611.407-.892.571-.749 1.493 1.3l.698 1.553-1.016 1.344c-2.56 3.385-7.45 4.537-12.256 2.888-2.257-.775-2.934-1.307-3.277-2.576-.302-1.12-.141-4.257.31-6.05.192-.76.222-.633.177.737-.081 2.461.442 2.288.833-.276.447-2.934 1.048-4.414 2.371-5.846.909-.984 1.006-1.189.562-1.189-.753 0-1.864 1.251-2.694 3.035-1.227 2.637-.782.952 1.632-6.181 2.292-6.768 3.312-11.003 3.134-13.007-.134-1.51-.621-1.126-.799.63l-.161 1.591-.046-1.448c-.035-1.083-.151-1.448-.462-1.448-.316 0-.414.346-.414 1.466 0 3.18-.88 6.448-3.63 13.495-2.222 5.693-3.211 9.161-3.46 12.13l-.178 2.124-1.966.449c-5.231 1.193-9.277 1.592-16.391 1.62-3.826.015-7.047-.061-7.156-.17-.457-.452 2.137-7.941 2.75-7.941.081 0 .076.186-.012.414-.097.254 0 .414.253.414.488 0 .8-.947.433-1.313-.234-.233 1.31-2.499 1.728-2.535.089-.008.305.296.478.675.173.379.456.69.629.69.187 0 .261-.281.183-.69-.212-1.104.834-.873 2.456.542 1.456 1.27 2.087 1.377 1.331.226l-.431-.656 1.11.565c1.328.675 2.009.733 1.786.151-.124-.321.065-.414.838-.414 1.241 0 1.341-.619.178-1.099-.451-.186-1.179-.682-1.619-1.101-.445-.425-1.43-.924-2.219-1.126l-1.418-.363 1.626-.914c2.477-1.393 3.396-2.605 3.41-4.501 0-.076-.082-.603-.184-1.171l-.184-1.033 2.017.723c1.11.397 2.621 1.025 3.358 1.396 1.3.653 1.357.658 1.898.172.483-.435.534-.718.386-2.144-.187-1.79-.573-2.484-1.005-1.803-.227.359-.261.356-.265-.023-.008-.851-1.301-1.621-4.966-2.957l-3.716-1.354-1.093-2.869c-1.41-3.7-1.68-6.681-.769-8.463.655-1.281 1.185-1.644 2.879-1.979 1.639-.322 1.873-.323 3.544-.009zm-7.49 2.596c-.377.991-.36 3.194.037 4.795.177.712 1.277 3.84 2.445 6.95 1.168 3.111 2.202 6.059 2.299 6.552.357 1.826-.649 3.195-3.411 4.643-7.791 4.084-11.652 12.965-10.207 23.477.211 1.533.626 2.836 1.434 4.502.968 1.997 1.554 2.755 3.949 5.104 1.548 1.517 2.96 3.038 3.14 3.379.377.718.056 1.544-.771 1.985-.282.151-.755.789-1.052 1.418l-.54 1.145-.032-1.391c-.083-3.644-1.5-6.304-6.537-12.28-1.535-1.82-3.15-3.818-3.589-4.438-.438-.621-1.522-1.904-2.408-2.851-1.764-1.886-2.359-3.341-2.047-5.002.283-1.505.787-2.28 2.322-3.571 1.364-1.148 1.729-1.705 1.114-1.705-.583 0-3.091 2.363-3.659 3.447-.732 1.398-.76 3.749-.06 5.097.274.526 1.15 1.644 1.947 2.483.797.839 1.806 2.035 2.242 2.657.437.623 1.991 2.548 3.454 4.276 5.644 6.671 6.883 9.375 5.712 12.468-.554 1.464-3.133 2.028-4.078.892-.482-.578-1.114-.196-1.114.673 0 1.663 2.523 3.305 4.507 2.933 1.217-.227 1.908-.995 2.918-3.245l.826-1.838 1.06.378c1.409.501 3.032.49 6.037-.04 1.772-.313 3.126-.383 4.701-.243 1.217.109 3.394.232 4.839.273 1.445.042 2.978.213 3.406.381.972.381 2.313.396 2.541.027.095-.153-.053-.37-.329-.482-.323-.132-.516-.52-.541-1.09-.022-.487-.314-1.328-.649-1.869-.966-1.559-1.904-1.9-5.557-2.022-3.711-.124-5.935.318-8.134 1.617a67.843 67.843 0 01-2.841 1.566c-.979.502-1.409.877-1.309 1.138.121.314-.076.353-1.02.203-1.438-.23-1.525-.31-1.001-.919 1.25-1.451.883-2.229-2.752-5.824-2-1.978-3.178-3.387-3.61-4.316a57.353 57.353 0 00-1.008-2.069c-.551-1.037-.978-4.31-.977-7.501v-2.844l6.844-.007c4.086-.005 7.902-.153 9.471-.369 2.914-.402 7.87-1.301 9.471-1.72 1.036-.27 1.037-.273 1.037-1.746 0-1.933.663-5.365 1.529-7.913.876-2.578 2.688-7.166 2.789-7.065.043.043-.466 1.687-1.131 3.655-.664 1.968-1.413 4.571-1.663 5.785-.602 2.921-.666 6.638-.133 7.725.538 1.095 2.842 2.231 5.731 2.828 1.928.397 2.527.414 4.241.121 2.43-.416 4.937-1.694 6.193-3.157l.922-1.074-.663 3.12c-1.644 7.747-3.806 13.872-7.479 21.197-5.231 10.432-11.9 19.225-16.212 21.377-1.76.878-2.159.969-4.275.969-1.768 0-2.848-.171-4.457-.708-3.381-1.126-9.369-4.482-17.193-9.637-4.023-2.651-12.168-8.562-12.168-8.832 0-.067.313-.95.695-1.963 1.671-4.43 2.428-12.048 1.879-18.918l-.236-2.952 1.942-1.355c2.317-1.617 8.29-7.048 10.255-9.325 4.628-5.363 6.237-10.128 6.896-20.422.121-1.89.082-2.859-.119-2.984-.436-.268-.507.122-.831 4.578-.523 7.199-1.696 11.462-4.225 15.353-2.524 3.886-11.929 12.438-15.357 13.965-1.779.792-1.559 1.612.234.871.377-.155.469.156.621 2.107.664 8.504-.104 14.703-2.593 20.934-.612 1.533-1.339 3.61-1.615 4.617l-.503 1.831-1.957-3.995c-2.956-6.034-3.411-7.947-2.779-11.688.17-1.004-.514-.726-.833.339-.5 1.665-.387 3.402.381 5.825 1.15 3.631 5.049 10.993 8.409 15.876 3.905 5.675 5.535 8.363 6.525 10.759.712 1.722.799 2.26.806 4.966.006 2.711-.075 3.225-.76 4.827-.671 1.567-5.955 9.798-6.16 9.594-.042-.042.1-.755.316-1.585.558-2.147.487-5.529-.175-8.284-.854-3.557-2.787-7.227-7.482-14.208-4.272-6.354-5.721-8.923-6.922-12.276-.558-1.559-.642-2.317-.647-5.794-.006-3.632.054-4.134.653-5.456.363-.802.584-1.533.491-1.626-.382-.382-.968.583-1.559 2.568-1.245 4.184-.419 9.81 2.2 14.985.461.912 2.777 4.541 5.145 8.065 6.346 9.441 7.862 12.966 7.855 18.269-.004 2.921-.433 4.756-1.627 6.955-.472.87-.859 1.684-.859 1.809 0 .547.619.147 1.143-.739.314-.531.739-.966.943-.966.205 0 1.157-1.143 2.116-2.541l1.744-2.541.197 2.16c.38 4.159 1.529 6.868 5.611 13.229 2.104 3.28 2.463 4.012 2.564 5.236.103 1.259.009 1.582-.809 2.792-.733 1.083-1.379 1.609-3.095 2.517-1.835.971-2.289 1.358-2.951 2.515-1.934 3.378-5.252 5.07-13.132 6.696-6.921 1.428-10.65 2.766-14.931 5.359-1.206.731-2.056 1.16-1.89.954 4.564-5.653 4.952-7.79 2.352-12.956-1.9-3.773-2.369-5.987-2.16-10.178.087-1.745.417-4.724.734-6.621 1.181-7.067 1.2-11.332.068-14.679l-.531-1.568.989.784c1.46 1.158 4.495 4.384 5.463 5.808 2.456 3.609 3.468 6.789 3.495 10.971.013 2.054.118 3.076.311 3.012.484-.159.675-2.662.392-5.139-.319-2.791-1.613-6.389-3.132-8.706-1.535-2.342-5.967-6.685-8.614-8.442-1.235-.82-2.23-1.614-2.212-1.766.018-.152-.535-.415-1.228-.586-.694-.171-1.627-.502-2.074-.735-2.123-1.108-3.893-4.134-4.174-7.135-.484-5.173 2.651-10.236 15.778-25.476 1.83-2.124 5.947-6.904 9.151-10.621 15.038-17.452 20.672-25.533 27.303-39.158 1.805-3.708 3.833-7.512 4.507-8.455 1.074-1.501 3.432-3.809 3.66-3.582.045.045-.047.417-.203.827zm43.408-.382c0 .441 1.072 2.444 2.21 4.127.564.835.969 1.68.9 1.879-.069.199.009 1.503.174 2.897.71 6.025.928 13.132.585 19.071l-.373 6.499c-.021.379.075.71.213.734.138.024.362.242.498.483.572 1.02.771.287.771-2.836 0-5.893 1.161-10.492 4.034-15.973.975-1.862 1.773-3.612 1.773-3.89 0-.279-1.192-1.673-2.649-3.099-3.008-2.944-4.614-4.964-6.394-8.041-1.128-1.95-1.742-2.602-1.742-1.851zm-7.601 1.338l.55.66-.692-.384c-.38-.211-.735-.407-.788-.434-.053-.028-.009-.192.097-.363.107-.172.214-.274.238-.226.025.048.292.384.595.747zm17.557 11.834c0 .22-.437 1.117-.971 1.994-1.267 2.081-2.251 4.286-3.182 7.129l-.755 2.306-.19-4.65c-.184-4.489-.54-9.309-.888-12.026l-.168-1.305 3.077 3.076c1.692 1.691 3.077 3.256 3.077 3.476zm-59.737-2.516c-.015.718-.893 4.244-1.388 5.573-.85 2.285-2.977 6.154-5.424 9.866-2.551 3.871-3.696 5.194-5.124 5.921-1.128.574-1.383 1.078-.545 1.078 1.734 0 4.805-3.691 8.977-10.787 2.771-4.714 4.96-11.394 3.855-11.765-.19-.064-.348-.013-.351.114zm31.998.845c-.07.269-.132.116-.137-.339-.006-.455.051-.675.127-.488.076.187.08.559.01.827zm-18.72 1.885c1.597.583 3.163 1.319 3.48 1.636.497.495 1.15 3.062.855 3.357-.051.05-1.412-.405-3.025-1.011-1.613-.607-3.035-1.103-3.16-1.103-.124 0-.567-.943-.983-2.097-.475-1.318-.628-2.05-.413-1.97.189.07 1.649.605 3.246 1.188zm28.021 2.535c-.097.72-.312 1.361-.478 1.423-.167.062-1.323.635-2.57 1.273l-2.266 1.161.929-1.841c1.055-2.09 1.303-2.346 2.803-2.894 1.715-.627 1.779-.592 1.582.878zm-22.86 1.517c-.076.19-.139.034-.139-.345s.063-.534.139-.345c.077.19.077.5 0 .69zm13.123 8.907c-.93.992-1.691 1.995-1.691 2.23 0 .235.101.385.226.335.318-.13 3.922-3.984 3.922-4.195 0-.59-.993.068-2.457 1.63zm23.109-.924c-.088.22-.153.155-.167-.167-.012-.291.054-.453.146-.362.091.092.101.33.021.529zm-45.417 1.575c.926.325 1.225.534.927.649-.243.092-1.169-.13-2.059-.496-1.91-.783-1.009-.905 1.132-.153zm27.53 1.282c-1.871.465-2.027.462-.968-.022.457-.209 1.203-.374 1.66-.368.607.008.422.113-.692.39zm3.457.402c-.094.151-.692.261-1.33.243-1.095-.031-1.113-.044-.329-.243 1.227-.312 1.852-.312 1.659 0zm-12.67.603c-.088.22-.154.155-.167-.167-.012-.29.053-.453.145-.361.092.091.102.329.022.528zm-23.043 1.116c-.254.41.092.561 1.624.706.802.076 1.726.313 2.054.527.822.535 1.049.016.294-.673-.657-.6-3.682-1.027-3.972-.56zm4.879.196c0 .375 1.15 1.125 1.446.943.319-.197-.58-1.203-1.074-1.203-.204 0-.372.117-.372.26zm21.997 3.109c.272.882.357.93.965.552.605-.377 1.113-.438 1.064-.128-.091.575.08.665.517.271.266-.239.919-.475 1.452-.525 1.954-.183.925-.644-1.613-.722-2.575-.08-2.579-.078-2.385.552zm13.123 2.925c0 .42 3.828 4.014 5.445 5.111.883.601 3.242 1.876 5.24 2.834 1.998.958 4.015 2.123 4.483 2.59 1.003 1.001 1.327 2.348.885 3.684-.352 1.062-1.817 3.212-2.189 3.212-.299 0-1.784-3.479-2.939-6.883-.487-1.433-1.028-2.654-1.203-2.712-.513-.171-.381.535.666 3.568 1.994 5.778 5.538 12.219 9.462 17.2 3.528 4.478 3.487 5.08-.997 14.68-4.439 9.506-5.244 10.146-13.46 10.711-5.029.346-7.5.894-6.869 1.523.189.189.524.187 1.034-.006 1.208-.458 1.355-.376 2.565 1.438 2.256 3.38 3.12 5.958 3.127 9.329.006 2.502-.585 4.286-2.642 7.984-1.043 1.874-1.952 3.922-2.218 4.998-.414 1.673-.415 1.946-.01 3.335.443 1.522 1.67 3.109 2.167 2.803.166-.103.169-.263.008-.423-.513-.513 1.004-5.512 2.154-7.095.983-1.354 1.743-1.807 2.422-1.445 1.182.632 4.943 4.948 5.814 6.673 1.98 3.923 1.86 7.023-.462 12.011-.778 1.667-1.676 3.77-1.998 4.673-.722 2.025-1.007 6.3-.558 8.387.174.81.273 1.517.22 1.57-.111.11-2.628-2.966-3.362-4.108-.269-.418-.38-.757-.249-.756.132.002.53.451.885.998.44.676.736.904.928.712.192-.192.057-.845-.424-2.044-1.062-2.648-1.351-4.216-1.34-7.256.008-1.918.186-3.388.586-4.827.316-1.138.847-3.062 1.18-4.276.834-3.041.829-6.146-.012-8.001-.676-1.491-1.862-2.896-2.445-2.896-.555 0-.447.254.594 1.403 2.117 2.338 2.261 5.354.54 11.287-1.419 4.886-1.602 10.216-.454 13.199.216.563-1.801-.992-3.62-2.79-.983-.972-1.726-2.153-2.833-4.502-1.829-3.884-3.222-5.439-7.862-8.78-1.787-1.287-3.701-2.874-4.252-3.527-.749-.887-1.062-1.095-1.239-.821-.196.301-.305.298-.624-.017-.212-.21-1.047-.74-1.855-1.177-2.343-1.269-4.858-3.985-6.209-6.706-.971-1.953-1.18-2.668-1.261-4.301-.136-2.75.711-6.112 2.126-8.441.138-.228.421-.785.629-1.237.467-1.018 4.045-4.8 5.151-5.445l.813-.474.182 2.957c.183 2.983 1.172 10.249 1.43 10.506.076.076.248.023.382-.119.141-.149.003-1.765-.328-3.843-.443-2.782-.576-4.949-.593-9.656-.021-5.461.041-6.318.61-8.552.782-3.069 2.334-6.315 4.183-8.747.773-1.017 3.2-3.717 5.394-5.999 5.573-5.798 7.124-8.27 8.414-13.409.915-3.641 1.567-10.521 1.01-10.648-.294-.067-.457.895-.955 5.628-.553 5.262-1.739 8.789-4.143 12.321-.626.919-2.924 3.529-5.107 5.801-4.482 4.663-6.187 6.803-7.486 9.397-1.72 3.436-2.911 8.349-2.911 12.007 0 1.617-.044 1.739-.697 1.902-.849.212-4.593 3.708-5.444 5.082l-.615.992-.385-1.232c-.23-.738-.395-2.56-.41-4.543-.029-3.792.244-5.018 2.151-9.656.686-1.669 1.248-3.469 1.25-4.001.002-.74.364-1.449 1.55-3.034a89.516 89.516 0 0012.225-22.348c1.56-4.164 3.412-10.666 3.953-13.878.196-1.166.457-2.12.58-2.12.122 0 .222.101.222.225zm8.296 11.85c0 .142.569 1.611 1.264 3.264a77.12 77.12 0 012.212 6.126c.869 2.856.949 3.419.949 6.654 0 5.264-.866 9.353-2.878 13.596-1.101 2.323-3.178 5.378-4.962 7.3-.972 1.047-1.464 1.774-1.278 1.889.167.103.523-.011.792-.254.268-.242.739-.441 1.044-.441 1.057 0 4.029-1.733 5.461-3.185 4.51-4.572 5.306-11.823 2.488-22.685-1.313-5.064-4.034-12.177-4.746-12.409-.19-.063-.346.003-.346.145zm-24.59 3.139c-1.135 1.316-2.168 1.887-3.842 2.126-1.375.196-1.508.73-.181.73h.838l-.671 1.021-.671 1.021-1.309-1.159c-.72-.637-1.2-1.2-1.066-1.251.134-.051.244-.268.244-.483 0-.43-1.793-.568-2.047-.158-.127.205 4.01 4.181 4.35 4.181.073 0 .464-.562.867-1.249.404-.688 1.522-1.867 2.484-2.622 1.683-1.319 2.642-2.414 2.642-3.016 0-.583-.72-.206-1.638.859zm-4.02 7.845c1.061.503 1.614 1.239 2.013 2.684.308 1.111.25 1.154-.975.728-.457-.159-2-.331-3.429-.383a111.016 111.016 0 01-4.81-.29c-1.594-.142-2.859-.073-4.524.245-1.272.242-2.641.433-3.042.424l-.73-.018.664-.265c.366-.146 1.551-.816 2.634-1.49 1.083-.673 2.651-1.407 3.484-1.63 2.146-.575 7.503-.578 8.715-.005zm-63.671 5.011c-.121.569-.209 2.338-.196 3.932.019 2.396.154 3.277.781 5.103 1.074 3.13 1.736 4.11 7.288 10.795 4.553 5.481 6.484 10.754 6.504 17.758.011 3.81-.315 5.946-1.359 8.917-1.047 2.976-1.04 2.946-.584 2.946.474 0 1.899-4.033 2.436-6.897.427-2.28.433-7.327.011-9.656-.5-2.753-1.617-5.966-2.975-8.552-1.131-2.155-1.92-3.215-6.514-8.751-3.551-4.278-4.752-7.217-4.77-11.663-.007-1.594.087-3.363.208-3.932.177-.833.139-1.034-.195-1.034-.256 0-.499.396-.635 1.034zm42.16.49c-.074.383-.017.768.126.856.475.293-.948 1.482-1.774 1.482-.988 0-2.448-.595-2.955-1.205-.526-.633-.263-.801.69-.44 1.064.404 2.376.125 3.183-.676.852-.846.888-.847.73-.017zm-18.099 2.724c9.408 7.066 21.231 14.132 26.133 15.617 1.094.332 1.984.684 1.977.783-.007.099-.3 1.235-.652 2.525-.592 2.174-.653 2.28-.838 1.452-.31-1.392-.686-1.345-1.326.168l-.59 1.392-.914-3.173c-.967-3.354-1.336-4.253-1.746-4.253-.139 0-.911.993-1.716 2.207-.804 1.214-1.592 2.207-1.749 2.207-.346 0-6.979-3.808-9.839-5.649-6.23-4.009-10.566-8.383-12.949-13.06-.526-1.033-.564-1.32-.287-2.157.175-.531.463-.91.637-.842.175.068 1.912 1.321 3.859 2.783zm28.002-2.621c-.294.475 1.712 1.888 3.202 2.256 2.263.559 5.384.46 6.874-.219 1.565-.714 2.41-1.352 2.143-1.618-.113-.113-.922.156-1.797.598-1.378.696-1.886.801-3.803.785-2.625-.023-4.24-.435-5.35-1.367-.894-.751-1.042-.801-1.269-.435zm46.16 4.996c.574 7.076-2.431 13.229-7.489 15.338-.794.33-.98.347-.754.067 2.938-3.64 4.62-6.597 5.871-10.322.859-2.559 1.661-6.53 1.716-8.501l.032-1.136.217 1.103c.119.607.302 2.16.407 3.451zm-77.841.318c.532.942 2.017 2.817 3.3 4.165 3.545 3.727 8.033 6.941 15.776 11.299l3.01 1.693-.403.779c-.582 1.123-1.096.961-1.498-.47-.193-.686-.467-1.32-.61-1.408-.143-.088-.725.213-1.294.669l-1.035.83-3.3-1.584c-1.815-.871-4.544-2.427-6.065-3.458l-3.627-2.458c-.806-.545-5.486-7.154-6.199-8.754-.246-.551-.243-1.1.013-2.332.378-1.816.302-1.856 1.932 1.029zm39.545-1.148c-.381.122-1.418.233-2.305.248-1.157.02-1.581.125-1.499.373.266.811 4.91.336 4.91-.503 0-.433-.091-.442-1.106-.118zm3.336 12.838c-2.231 5.509-2.681 9.627-1.533 14.038.2.771.325 1.439.278 1.486-.048.047-.691-.517-1.43-1.254-2.316-2.312-4.173-7.003-4.323-10.922l-.062-1.608 1.245-.424c1.706-.583 3.719-1.966 5.528-3.801.835-.847 1.56-1.415 1.611-1.263.05.151-.541 1.838-1.314 3.748zm-31.266 4.039a53.3 53.3 0 003.643 1.753c1.628.693 1.865.89 2.012 1.671.265 1.408.695 1.574 2.123.816.684-.363 1.373-.577 1.532-.475.158.103.829 1.521 1.49 3.152.661 1.631 1.332 2.96 1.492 2.952.159-.007 1.161-1.242 2.226-2.745 1.064-1.502 2.029-2.738 2.143-2.745.114-.008.207.227.207.522 0 .754.503.975 1.065.468.449-.406.448-.271-.01 2.387-.267 1.549-.569 3.831-.671 5.07-.102 1.24-.276 2.4-.387 2.579-.636 1.027-11.24 1.775-15.78 1.113-2.554-.373-6.348-1.292-6.674-1.616-.118-.119.215-1.023.74-2.01 2.513-4.723 2.394-8.972-.406-14.46l-1.295-2.536 2.376 1.568c1.307.862 3.185 2.003 4.174 2.536zm15.054.327c.887 3.063.883 3.426-.052 4.78-1.507 2.18-2.423 3.385-2.579 3.391-.087.003-.613-1.133-1.168-2.525l-1.01-2.53.871-1.539c1.709-3.02 2.751-4.505 2.989-4.264.132.133.559 1.343.949 2.687zm8.416-.384c.813 5.299 2.213 8.545 4.751 11.014l1.619 1.575-.804 2.315c-.442 1.274-.887 2.982-.989 3.796l-.185 1.48-.589-.545c-.323-.301-1.423-.878-2.444-1.283-3.049-1.212-5.08-3.365-6.145-6.516-.391-1.155-.391-1.511-.005-3.725.556-3.182 1.339-6.748 1.916-8.73.455-1.56.473-1.58 1.499-1.58h1.039l.337 2.199zm-15.532 2.325c.264.859.232.962-.389 1.245-.819.372-1.189.188-1.189-.59 0-.561.714-1.592 1.102-1.592.104 0 .318.421.476.937zm10.313 1.079c0 .199-.183.602-.406.897-.35.462-.407.472-.415.075-.012-.649.282-1.333.574-1.333.136 0 .247.163.247.361zm40.098 2.545c0 1.813 1.706 3.834 4.134 4.898 2.2.964 3.515 2.036 4.203 3.432.568 1.15.65 1.717.65 4.489 0 2.88-.059 3.255-.644 4.073-.843 1.179-1.778 1.634-4.091 1.994-2.681.417-4.249.979-5.424 1.945-1.246 1.025-2.584 3.661-3.073 6.055-.355 1.737-.377 1.77-.75 1.103-.224-.398-.381-1.441-.374-2.48.011-1.928.289-2.631 2.944-7.449 1.494-2.712 2.15-4.944 2.144-7.299-.008-3.246-1.396-7.235-3.451-9.922l-.945-1.235 1.578-.099c.867-.055 1.92-.123 2.338-.152.643-.044.761.056.761.647zm-95.488 5.684c1.048.72 1.185.908.81 1.117-.248.139-.653.649-.9 1.135-.562 1.104-2.891 4.401-3.018 4.274-.052-.052.152-.836.454-1.743.301-.907.689-2.549.862-3.648.173-1.1.363-2 .423-2 .059 0 .675.389 1.369.865zm56.202 3.371c-.066.06-.419.201-.783.313-.596.183-.646.137-.488-.449a7.753 7.753 0 00.196-1.48c.02-.82.026-.818.608.34.324.641.534 1.215.467 1.276zm-54.181 2.818c.33 2.653.077 6.037-.868 11.567a44.121 44.121 0 00-.629 7.311c-.02 4.361.275 5.581 2.346 9.698.749 1.489 1.352 2.987 1.342 3.332-.012.427-.129.276-.369-.478-.658-2.065-1.815-3.966-3.391-5.571-3.5-3.566-6.582-8.615-7.258-11.892-.448-2.174-.366-4.765.21-6.61.57-1.826 1.469-3.235 4.265-6.687 1.045-1.29 2.232-2.932 2.639-3.65l.738-1.306.344.991c.189.545.473 2.028.631 3.295zm-20.863-3.157c-.522.409-.661.675-.459.876.202.202.445.149.802-.173.544-.492 2.507-.582 4.064-.187l.829.211-.857.033c-1.222.046-2.645.591-2.508.96.064.173.287.262.496.199.209-.064 1.314-.171 2.454-.239 1.141-.068 2.15-.243 2.241-.388.1-.157 1.032.025 2.288.446 2.468.826 2.385.814 2.385.353 0-.408-3.545-1.622-6.586-2.256-2.84-.593-4.241-.548-5.149.165zm51.905 1.626c5.999 1.671 14.581 1.844 20.184.405.679-.174.76-.121.76.495 0 .884-.257.941-5.254 1.169-4.619.211-11.822-.212-14.242-.836-2.03-.523-4.007-1.305-4.008-1.584-.002-.31.37-.259 2.56.351zm23.061.27c-1.107.969-1.287 1.011-1.287.299 0-.326.292-.635.76-.806 1.341-.489 1.495-.341.527.507zm-23.799 1.114c3.251 1.119 6.215 1.443 13.248 1.448 3.65.003 7.041-.085 7.535-.197.887-.199.899-.189.899.804 0 1.48-.385 1.97-2.029 2.584-5.465 2.04-14.103 2.184-19.037.318-2.266-.857-2.237-.817-2.381-3.287-.071-1.228-.071-2.232.001-2.232s.866.253 1.764.562zm30.485 5.87c2.676 4.45 4.194 10.768 4.194 17.455 0 4.981-.669 7.057-3.825 11.871-2.54 3.876-3.647 4.882-6.237 5.671-5.843 1.78-14.984-1.932-21.382-8.682-2.324-2.452-3.476-4.087-3.265-4.634.082-.213.718-.622 1.411-.907 2.969-1.22 5.099-3.784 5.086-6.12-.008-1.423-.589-2.635-3.096-6.465-2.663-4.068-4.345-7.335-3.627-7.045 3.447 1.391 6.391 1.898 10.877 1.873 3.759-.021 6.51-.57 9.341-1.863.831-.379 1.55-.69 1.599-.69.049 0 .128.528.175 1.173.117 1.616.607 1.359.779-.409.133-1.369.262-1.576 2.212-3.556l2.071-2.103 1.383 1.449c.76.797 1.797 2.139 2.304 2.982zm-8.803-.789c0 .291-2.48 1.526-4.148 2.067-3.89 1.26-10.096 1.313-14.739.126-2.347-.6-4.332-1.594-3.948-1.976.048-.048 1.006.22 2.128.594 5.118 1.71 13.104 1.551 18.523-.368 1.513-.536 2.184-.672 2.184-.443zm-20.596 3.961c-.359.358-.039.594 1.35.997 1.778.516 2.462.549 2.316.113-.115-.345-3.428-1.348-3.666-1.11zm1.885 2.055c-.255.412.059.516 3.136 1.034 3.87.652 8.622.945 11.284.696 3.747-.351 2.212-.743-3.322-.849-3.471-.067-6.211-.274-8.098-.611-1.568-.28-2.918-.402-3-.27zm23.827 1.751c-5.576 2.041-13.46 2.476-19.022 1.049-1.541-.395-2.302-.334-1.996.159.242.391 3.776 1.085 6.901 1.356 3.39.294 7.538-.009 10.827-.791 1.2-.285 2.222-.478 2.272-.429.049.05-.74.968-1.754 2.041-2.467 2.608-4.044 3.375-7.258 3.529-1.72.083-3.129-.037-4.903-.418-1.383-.296-2.601-.429-2.741-.299-.693.644 5.448 1.776 8.252 1.52 3.191-.29 4.663-1.143 8.023-4.647 3.5-3.651 3.603-3.877 1.399-3.07zm18.164 4.87c.809.799 2.715 2.336 4.236 3.416 4.025 2.859 4.916 3.863 6.823 7.684 1.973 3.954 2.453 4.614 4.634 6.374.919.743 1.572 1.384 1.45 1.425-.465.157-5.257-1.397-7.408-2.403-6.632-3.1-10.596-7.832-11.419-13.63-.212-1.488-.126-4.318.13-4.318.046 0 .746.653 1.554 1.452zm-6.099 4.338c-.492.611-1.39 1.362-1.996 1.671-1.024.521-1.241 1.091-.415 1.091.558 0 2.513-1.514 3.203-2.48.973-1.364.279-1.611-.792-.282zm-19.255 2.646c-1.217.196-2.858.364-3.648.374-1.515.019-2.149.404-1.173.713 1.197.379 7.823-.54 7.649-1.061-.14-.418-.374-.42-2.828-.026zm9.126 1.496c-4.062 1.474-10.95 2.041-20.056 1.65-3.266-.139-6.235-.339-6.598-.442-.493-.141-.63-.091-.544.198.176.593 4.532 2.662 7.011 3.33 1.802.486 3.007.599 6.498.612 3.795.013 4.62-.071 7.19-.733 4.48-1.155 11.062-3.903 11.062-4.619 0-.441-.333-.338-3.183.991-8.382 3.907-16.168 4.733-23.088 2.448-1.141-.377-2.217-.777-2.392-.888-.175-.112 3.869-.209 8.987-.215 8.481-.012 9.526-.065 11.794-.597 2.964-.695 5.176-1.495 5.165-1.867-.012-.429-.372-.403-1.846.132zm46.958 3.003c2.921 2.831 4.317 5.405 4.898 9.035.406 2.532-.015 4.611-1.633 8.07-.754 1.61-1.452 3.33-1.553 3.823-.1.494-.244.897-.321.897-.076 0-1.248-.758-2.605-1.685l-2.466-1.686-.007-6.797c-.007-7.615-.335-12.951-.846-13.767-.187-.3-.26-.754-.162-1.01.157-.409.341-.358 1.496.415.724.484 2.163 1.701 3.199 2.705zm-4.586 8.652c.084 5.193.04 8.759-.11 8.759-.138 0-.766-.528-1.394-1.173-1.662-1.706-2.153-3.421-2.153-7.517 0-3.655.222-4.583 1.978-8.272 1.014-2.13 1.039-2.157 1.285-1.364.139.444.316 4.75.394 9.567zm-64.421-1.5c3.93 2.899 7.653 4.634 11.701 5.452 3.881.785 7.498.064 9.878-1.969 1.155-.986 3.544-4.37 5.246-7.432.815-1.464.9-1.544.738-.689-.284 1.501-1.693 4.995-2.571 6.376-1.079 1.698-2.667 3.191-4.326 4.067-1.286.679-1.625.729-4.839.721-3.336-.009-3.554-.046-6.222-1.069-7.897-3.029-12.917-6.426-15.324-10.371-.907-1.485-.876-1.464 1.465 1.012 1.315 1.39 3.229 3.147 4.254 3.902zm-13.759-1.135c-1.23 3.278-1.473 4.959-1.5 10.339-.023 4.77-.067 5.21-.602 5.931-.663.895-2.327 1.878-3.646 2.154l-.906.189.78-1.333c1.101-1.883 1.949-3.958 2.163-5.294.277-1.728-.321-1.421-.861.442-.519 1.794-2.101 4.946-2.925 5.827-.682.732-1.503.802-1.216.105.697-1.689.251-2.017-.656-.483l-.571.966-2.982.004c-5.175.009-8.327 1.031-10.529 3.413-2.052 2.221-1.398 2.814 2.83 2.565 4.467-.263 7.4-1.385 9.898-3.786.782-.753 1.617-1.363 1.854-1.356.649.018-2.412 2.721-4.446 3.926-.968.572-2.755 1.371-3.972 1.773-1.928.639-2.682.735-5.876.752-2.507.013-3.664.117-3.664.328-.001.716 4.128.862 7.292.258 4.088-.78 7.497-2.554 10.495-5.464 1.056-1.024 2.13-1.862 2.386-1.862 1.021 0 3.355-.882 4.191-1.584.486-.408 1.129-1.294 1.429-1.97.489-1.103.525-1.603.358-4.974-.201-4.073.15-6.982 1.216-10.068.619-1.793.694-2.37.306-2.37-.141 0-.522.708-.846 1.572zm28.906 9.721c-.127.203-.509.259-1.019.147-1.713-.375-3.431 2.639-3.355 5.886.103 4.4 2.998 8.092 6.997 8.925 1.265.263 1.775.239 3.104-.148.924-.269 1.59-.619 1.59-.836 0-.205.486-.858 1.079-1.451 1.301-1.297 1.819-2.934 1.557-4.912-.574-4.324-3.798-7.513-7.894-7.805-1.26-.09-1.922-.028-2.059.194zm4.864 1.342c2.773 1.445 4.645 4.89 4.289 7.891-.29 2.436-2.034 4.027-4.417 4.027-3.636 0-6.653-3.417-6.994-7.921-.241-3.197 1.059-4.71 4.082-4.749 1.196-.016 1.902.159 3.04.752zm-7.989 2.774c-.139 1.435.437 3.838 1.343 5.61 1.198 2.342 3.163 3.869 5.599 4.35 1.013.2 1.048.23.301.257-2.48.088-5.222-1.594-6.535-4.009-.799-1.469-1.431-4.351-1.199-5.462l.291-1.396c.235-1.125.338-.787.2.65zm-37.358 6.941c-1.556 1.404-3.578 2.378-5.991 2.888-2.109.446-6.218.563-6.218.177 0-.468 2.547-2.574 3.76-3.109 1.775-.784 3.18-1.001 6.611-1.022l3.041-.019-1.203 1.085zm113.898 1.112c1.711 3.345.469 5.839-3.308 6.644-.845.18-1.639.415-1.763.522-.124.108.398.653 1.161 1.212 1.801 1.319 3.495 3.854 3.911 5.853.49 2.352-.047 4.944-1.371 6.624l-.55.697-.17-.782c-.498-2.291-1.604-5.84-2.232-7.164-.811-1.709-3.371-4.607-4.647-5.259-1.088-.556-1.153-.668-1.229-2.123l-.062-1.207 1.302.658c3.065 1.547 6.704.307 7.971-2.717.567-1.354.531-2.302-.141-3.781l-.557-1.224.592.535c.326.293.818.974 1.093 1.512zm-6.726 11.298c.681.727 2.677 4.641 2.939 5.764.085.363.059.55-.057.414-.172-.201-2.676-4.225-4.702-7.557l-.42-.69.797.69c.438.379 1.087 1 1.443 1.379zm-126.222.609c-.941 1.151-1.198 5.964-.481 8.998.617 2.611 1.671 4.589 3.463 6.5 1.432 1.527 4.021 3.204 4.948 3.204.62 0 .241-.737-.992-1.931-1.567-1.517-3.383-4.247-4.349-6.538-.91-2.161-1.633-6.279-1.51-8.618.077-1.475.014-1.815-.347-1.886-.242-.047-.571.075-.732.271zm1.333 9.021c.727 2.236 2.198 5.006 3.51 6.612 1.312 1.606.322 1.077-1.378-.735-2.487-2.654-3.548-5.806-3.5-10.403l.028-2.759.374 2.733c.206 1.503.641 3.552.966 4.552z" fill="#fff"/></g><defs><clipPath id="clip0_437_190"><path fill="#fff" d="M0 0h533v518H0z"/></clipPath><filter id="filter0_ddd_437_190" x="34.8" y="-12.2" width="464.4" height="542.4" filterUnits="userSpaceOnUse" color-interpolation-filters="sRGB"><feFlood flood-opacity="0" result="BackgroundImageFix"/><feColorMatrix in="SourceAlpha" values="0 0 0 0 0 0 0 0 0 0 0 0 0 0 0 0 0 0 127 0" result="hardAlpha"/><feOffset/><feGaussianBlur stdDeviation="10.8"/><feColorMatrix values="0 0 0 0 1 0 0 0 0 1 0 0 0 0 1 0 0 0 1 0"/><feBlend in2="BackgroundImageFix" result="effect1_dropShadow_437_190"/><feColorMatrix in="SourceAlpha" values="0 0 0 0 0 0 0 0 0 0 0 0 0 0 0 0 0 0 127 0" result="hardAlpha"/><feOffset/><feGaussianBlur stdDeviation="21.6"/><feColorMatrix values="0 0 0 0 1 0 0 0 0 1 0 0 0 0 1 0 0 0 1 0"/><feBlend in2="effect1_dropShadow_437_190" result="effect2_dropShadow_437_190"/><feColorMatrix in="SourceAlpha" values="0 0 0 0 0 0 0 0 0 0 0 0 0 0 0 0 0 0 127 0" result="hardAlpha"/><feOffset/><feGaussianBlur stdDeviation="75.6"/><feColorMatrix values="0 0 0 0 1 0 0 0 0 1 0 0 0 0 1 0 0 0 1 0"/><feBlend in2="effect2_dropShadow_437_190" result="effect3_dropShadow_437_190"/><feBlend in="SourceGraphic" in2="effect3_dropShadow_437_190" result="shape"/></filter></defs></svg>