<svg width="45" height="38" fill="none" xmlns="http://www.w3.org/2000/svg"><g clip-path="url(#clip0_101_56)"><path d="M24.92 16.47a1.09 1.09 0 00-.8.828l-1.358 6.467c-.17.81.608 1.514 1.421 1.288l7.864-2.187c.418-.116.726-.458.791-.877l.967-6.208c.122-.784-.625-1.44-1.41-1.239l-7.474 1.928zm7.57 5.159c-.065.42-.373.761-.79.877l-3.888 1.081c-.814.226-1.591-.48-1.42-1.289l.425-2.026c.083-.394.381-.71.777-.82l3.774-1.066c.79-.223 1.56.437 1.435 1.232l-.313 2.011zm-5.23-2.54a1.089 1.089 0 00-.776.821l-.77 3.655a1.089 1.089 0 01-.78.822l-.213.059c-.813.226-1.59-.48-1.42-1.289l1.154-5.498a1.09 1.09 0 01.801-.827l6.647-1.714c.784-.203 1.532.454 1.41 1.239l-.06.387a1.087 1.087 0 01-.787.876l-5.206 1.47z" fill="#000"/><path d="M22.365 14.281a1.09 1.09 0 00-.781.821l-2.877 13.58c-.064.302.006.618.192.87l1.788 2.418a1.15 1.15 0 001.207.426l15.516-4c.432-.11.752-.463.814-.895l1.922-13.447c.04-.28-.033-.567-.205-.799l-1.883-2.549a1.15 1.15 0 00-1.226-.421l-14.467 3.996zm-.388 17.641a1.15 1.15 0 01-1.208-.426l-.698-.945a1.079 1.079 0 01.59-1.69l13.85-3.83a1.15 1.15 0 011.213.403l.89 1.155a1.08 1.08 0 01-.594 1.714l-14.043 3.62zm13.249-8.2c-.067.42-.375.76-.792.875l-13.551 3.747c-.814.225-1.59-.481-1.42-1.29l2.456-11.59a1.09 1.09 0 01.781-.82l12.903-3.564c.79-.219 1.555.443 1.429 1.236l-1.806 11.407zm4.308-10.43c.171.232.245.52.205.8l-1.556 10.874c-.138.964-1.403 1.271-2.007.487l-.393-.51a1.086 1.086 0 01-.216-.833l1.694-10.708c.152-.966 1.427-1.253 2.018-.455l.255.345z" fill="#000"/><path d="M36.615 26.59a1.08 1.08 0 01-.595 1.712l-14.043 3.62a1.15 1.15 0 01-1.208-.426l-.698-.945a1.079 1.079 0 01.59-1.69l13.85-3.83a1.15 1.15 0 011.213.403l.89 1.155zm.648-13.188c.153-.965 1.428-1.252 2.018-.454l.254.343c.172.232.245.52.205.8l-1.555 10.873c-.138.965-1.403 1.272-2.007.488l-.393-.51a1.086 1.086 0 01-.216-.833l1.694-10.707z" fill="#000"/><path d="M22.701 14.644a1.09 1.09 0 00-.782.821l-2.454 11.59c-.172.809.605 1.515 1.418 1.29l13.554-3.748c.417-.115.726-.456.792-.875l1.806-11.406c.125-.793-.639-1.455-1.429-1.237l-12.905 3.565zm10.137 7.345c-.065.42-.373.76-.79.877l-7.865 2.187c-.813.226-1.59-.479-1.42-1.288l1.357-6.468a1.09 1.09 0 01.8-.827l7.475-1.928c.784-.202 1.532.455 1.41 1.24l-.967 6.207z" fill="#1A1A1A"/><path d="M31.902 15.12c.785-.202 1.533.455 1.41 1.24l-.06.387a1.087 1.087 0 01-.786.876l-5.206 1.47a1.09 1.09 0 00-.776.82l-.77 3.655a1.09 1.09 0 01-.78.822l-.213.059c-.813.226-1.59-.48-1.42-1.289l1.154-5.498a1.09 1.09 0 01.8-.827l6.647-1.714zM6.427 23.55a1.099 1.099 0 01-.046.186 1.14 1.14 0 00-.009.76c.277.76 1.418 1.084 3.295.947 1.751-.13 3.952-.653 6.186-1.473 2.234-.82 4.25-1.844 5.671-2.88.784-.575 1.341-1.115 1.656-1.609.293-.46.377-.88.242-1.244a1.056 1.056 0 00-.31-.44L10.405 5.17a.833.833 0 00-1.411.472l-2.567 17.91zm16.345-5.397l.091.092a.54.54 0 01.097.162c.186.506-.46 1.361-1.727 2.286-1.384 1.01-3.354 2.01-5.548 2.818-4.75 1.744-8.476 1.83-8.848.818a.246.246 0 01-.008-.113l.047-.326a.678.678 0 01.065-.213c.027-.053.057-.105.089-.155.276-.433.8-.945 1.533-1.48 1.384-1.01 3.355-2.011 5.548-2.817 4.31-1.584 7.777-1.803 8.66-1.073 0 0 .001 0 0 0zm-2.12-2.104c.403.4.042 1.197-.524 1.24-1.751.13-3.952.653-6.186 1.473-2.235.82-4.25 1.845-5.671 2.88-.412.293-1.068-.046-.996-.546L9.339 6.683a.833.833 0 011.411-.472l9.903 9.838z" fill="#000"/><path d="M9.342 6.683a.833.833 0 011.41-.472l9.902 9.836c.402.4.04 1.198-.525 1.24-1.752.131-3.952.654-6.187 1.474-2.234.82-4.249 1.845-5.67 2.88-.413.293-1.068-.046-.996-.547l2.066-14.41z" fill="#1A1A1A"/><path d="M22.772 18.152l.092.091a.54.54 0 01.096.163c.187.506-.459 1.361-1.726 2.286-1.384 1.01-3.354 2.01-5.548 2.817-4.751 1.744-8.476 1.831-8.849.818a.246.246 0 01-.007-.113l.047-.325a.678.678 0 01.065-.214c.027-.052.056-.104.089-.154.276-.434.8-.945 1.533-1.48 1.384-1.01 3.354-2.011 5.548-2.817 4.31-1.584 7.777-1.802 8.66-1.072z" fill="#000"/></g><defs><clipPath id="clip0_101_56"><path fill="#fff" d="M0 0h45v38H0z"/></clipPath></defs></svg>