<svg width="113" height="99" viewBox="0 0 113 99" fill="none" xmlns="http://www.w3.org/2000/svg">
<g filter="url(#filter0_dddd_3_2)">
<path fill-rule="evenodd" clip-rule="evenodd" d="M26.7219 20.1968C26.3217 20.395 25.9847 20.7763 25.8533 21.1798C25.8124 21.3049 25.0813 26.2526 24.2286 32.1746C20.6912 56.7386 20.2135 60.0135 20.1088 60.4154C19.4164 63.0719 22.0584 64.4055 27.2233 64.0066C31.8771 63.6472 37.8889 62.0541 43.5384 59.6833C45.4266 58.8909 47.8306 57.7337 49.0966 57.0078C49.4192 56.8228 49.7008 56.6888 49.7221 56.7101C49.7436 56.7313 49.7111 56.9854 49.6499 57.2748C49.5888 57.564 48.9035 60.7806 48.1272 64.4227C47.2178 68.6884 46.7155 71.1933 46.7155 71.4625C46.7155 72.095 46.8933 72.4954 47.5791 73.4075C47.923 73.8647 48.8497 75.1109 49.6387 76.1768C50.4276 77.2428 51.1892 78.2247 51.3313 78.3588C51.6803 78.6885 52.2682 78.9469 52.7727 78.9923C53.1136 79.0231 53.4305 78.9687 54.5194 78.6926C56.024 78.3111 67.1961 75.4513 68.4136 75.136C68.8505 75.0229 70.8651 74.5063 72.8904 73.9882C74.9158 73.4701 77.1254 72.9046 77.8005 72.7315C78.4756 72.5585 79.6129 72.2674 80.3277 72.0846C81.0426 71.9017 81.9849 71.66 82.4217 71.5473C82.8586 71.4347 83.9308 71.1597 84.8045 70.9362C87.0313 70.3667 87.3124 70.2869 87.5911 70.1451C88.048 69.9126 88.3541 69.6173 88.5851 69.1863C88.8137 68.76 88.8285 68.6647 90.9076 54.1993C92.0584 46.1925 93 39.4449 93 39.2048C93 38.9647 92.9509 38.6252 92.8909 38.4504C92.831 38.2756 92.3728 37.5834 91.8729 36.9122C91.373 36.2411 90.4392 34.9813 89.7978 34.1127C88.3913 32.2084 87.9956 31.786 87.4193 31.5744C86.6497 31.2918 86.4004 31.3304 83.0551 32.2504C81.3962 32.7067 78.9341 33.3826 77.5839 33.7525C76.2336 34.1225 73.7804 34.7963 72.1323 35.25C70.4842 35.7036 68.762 36.1771 68.3053 36.3021C67.8486 36.4271 66.5976 36.7707 65.5254 37.0656C64.4531 37.3606 62.2761 37.9576 60.6875 38.3922C53.6773 40.3104 54.0918 40.1773 53.584 40.6722C53.1102 41.1339 53.0059 41.423 52.6229 43.3367C52.5794 43.5538 52.5228 43.7554 52.497 43.7847C52.4712 43.8139 51.4279 42.8321 50.1785 41.603C46.2102 37.6989 29.3796 21.0625 29.0401 20.7084C28.3602 19.9996 27.5021 19.8102 26.7219 20.1968ZM29.0418 22.3953C29.3077 22.5202 31.0943 24.2474 37.0787 30.1647C41.311 34.3496 46.2165 39.1949 47.9798 40.932C50.8785 43.7876 51.191 44.1179 51.2398 44.3775C51.36 45.0165 51.2372 45.4862 50.8291 45.9483C50.4612 46.3649 50.1708 46.4747 49.2018 46.5639C41.9053 47.2356 31.466 50.9816 25.2137 55.1715C23.8979 56.0533 23.8623 56.0711 23.4163 56.0662C22.7894 56.0593 22.2563 55.6745 22.0939 55.1116C21.9914 54.7565 26.4903 23.6025 26.7043 23.1855C26.8803 22.8425 27.3127 22.4571 27.6629 22.3311C28.0635 22.187 28.6573 22.2146 29.0418 22.3953ZM84.3016 33.1502C85.4592 33.363 86.3022 34.3107 86.2939 35.39C86.2906 35.8112 86.0057 37.7008 85.0199 43.8392C84.8393 44.9643 84.6629 46.0788 84.628 46.3156C84.5668 46.731 83.5045 53.3949 83.2892 54.7141C83.2312 55.0694 83.0031 56.5068 82.7823 57.9084C82.5614 59.3099 82.3301 60.5948 82.2681 60.7638C82.1034 61.2127 81.6677 61.7209 81.257 61.9429C81.0439 62.0581 79.7833 62.4428 78.1577 62.8889C75.4284 63.6379 68.2226 65.619 64.5145 66.6401C63.4422 66.9353 61.9313 67.3508 61.1569 67.5632C60.3825 67.7758 58.3841 68.3251 56.7162 68.7839C50.7346 70.4291 51.0635 70.3475 50.5718 70.3082C49.7051 70.2391 48.9077 69.686 48.5286 68.891C48.2387 68.2831 48.2764 67.7913 48.7962 65.4096C49.0374 64.3041 49.4159 62.5437 49.6375 61.4975C49.8589 60.4512 50.1044 59.2964 50.183 58.9313C50.3118 58.3328 50.4353 57.7524 50.6934 56.5324C50.7408 56.3086 50.7993 56.0959 50.8234 56.0598C50.8476 56.0236 51.1761 55.7893 51.5534 55.5391C54.4611 53.6104 56.2608 51.8232 56.8658 50.2636C57.0742 49.7264 57.059 48.7913 56.8349 48.3614C56.7305 48.1612 56.0139 47.3835 54.95 46.3156L53.2334 44.5929L53.4736 43.4803C53.6057 42.8683 53.7767 42.2384 53.8536 42.0805C54.0626 41.6514 54.4541 41.2384 54.8276 41.053C55.0103 40.9622 56.4523 40.5329 58.0321 40.099C59.6117 39.665 62.9674 38.7428 65.4893 38.0496C68.0111 37.3565 70.643 36.6339 71.338 36.4438C72.033 36.2538 73.7389 35.786 75.1289 35.4042C76.5188 35.0225 78.4034 34.5059 79.3168 34.2562C80.2303 34.0066 81.3933 33.6853 81.9014 33.5424C82.9405 33.2501 83.5946 33.0868 83.7623 33.0779C83.8246 33.0746 84.0672 33.1071 84.3016 33.1502ZM74.7678 40.9944C73.8147 41.2453 70.1105 42.1994 66.5363 43.1145C62.8488 44.0585 59.8751 44.8562 59.662 44.9584C59.1932 45.1831 58.6755 45.746 58.5272 46.1922C58.4652 46.3785 58.0877 48.0815 57.6882 49.9765C57.2888 51.8715 56.6199 55.0371 56.202 57.0111C55.3647 60.9656 55.3372 61.2162 55.6673 61.8732C56.0184 62.5721 56.7334 63.0891 57.5457 63.2314C58.0653 63.3223 58.0841 63.3178 64.2256 61.6036C65.0199 61.382 66.4171 60.9956 67.3305 60.7452C68.244 60.4947 70.1123 59.9783 71.4824 59.5977C72.8525 59.217 74.331 58.8087 74.7678 58.6904C75.7602 58.4213 76.2078 58.2158 76.5608 57.867C77.0407 57.3928 77.1693 57.0382 77.3991 55.5561C77.5138 54.8167 78.0023 51.7082 78.4847 48.6485C79.0394 45.1304 79.3519 42.9535 79.3349 42.7265C79.2474 41.563 78.2336 40.6189 77.0102 40.5619C76.5695 40.5413 76.2668 40.5997 74.7678 40.9944ZM75.8405 49.041C76.3167 49.2809 76.7771 49.7528 76.9859 50.2152C77.2412 50.7805 77.226 51.1146 76.8282 53.6733C76.3842 56.5292 76.3025 56.7596 75.526 57.3477C75.2229 57.5772 75.0489 57.6365 73.1432 58.1592C70.8613 58.785 69.7859 59.0842 67.9443 59.6057C66.548 60.001 66.1515 60.0866 65.7059 60.0889C64.7534 60.0938 63.9609 59.5953 63.5263 58.7177C63.3356 58.3327 63.2951 58.1665 63.2961 57.7743C63.2977 57.1902 64.2108 52.8572 64.4327 52.3812C64.6258 51.9669 65.1178 51.478 65.5085 51.3121C65.8505 51.167 66.3401 51.025 70.6159 49.8313C72.2641 49.3712 73.7587 48.9498 73.9374 48.895C74.127 48.8367 74.503 48.8021 74.84 48.8116C75.3171 48.8251 75.4913 48.8651 75.8405 49.041Z" fill="#EFEFEF"/>
</g>
<defs>
<filter id="filter0_dddd_3_2" x="0.868114" y="0.868114" width="111.264" height="97.2638" filterUnits="userSpaceOnUse" color-interpolation-filters="sRGB">
<feFlood flood-opacity="0" result="BackgroundImageFix"/>
<feColorMatrix in="SourceAlpha" type="matrix" values="0 0 0 0 0 0 0 0 0 0 0 0 0 0 0 0 0 0 127 0" result="hardAlpha"/>
<feOffset/>
<feGaussianBlur stdDeviation="1.59432"/>
<feColorMatrix type="matrix" values="0 0 0 0 0.937255 0 0 0 0 0.937255 0 0 0 0 0.937255 0 0 0 1 0"/>
<feBlend mode="normal" in2="BackgroundImageFix" result="effect1_dropShadow_3_2"/>
<feColorMatrix in="SourceAlpha" type="matrix" values="0 0 0 0 0 0 0 0 0 0 0 0 0 0 0 0 0 0 127 0" result="hardAlpha"/>
<feOffset/>
<feGaussianBlur stdDeviation="3.18865"/>
<feColorMatrix type="matrix" values="0 0 0 0 0.937255 0 0 0 0 0.937255 0 0 0 0 0.937255 0 0 0 1 0"/>
<feBlend mode="normal" in2="effect1_dropShadow_3_2" result="effect2_dropShadow_3_2"/>
<feColorMatrix in="SourceAlpha" type="matrix" values="0 0 0 0 0 0 0 0 0 0 0 0 0 0 0 0 0 0 127 0" result="hardAlpha"/>
<feOffset/>
<feGaussianBlur stdDeviation="5.46625"/>
<feColorMatrix type="matrix" values="0 0 0 0 0.937255 0 0 0 0 0.937255 0 0 0 0 0.937255 0 0 0 1 0"/>
<feBlend mode="normal" in2="effect2_dropShadow_3_2" result="effect3_dropShadow_3_2"/>
<feColorMatrix in="SourceAlpha" type="matrix" values="0 0 0 0 0 0 0 0 0 0 0 0 0 0 0 0 0 0 127 0" result="hardAlpha"/>
<feOffset/>
<feGaussianBlur stdDeviation="9.56594"/>
<feColorMatrix type="matrix" values="0 0 0 0 0.937255 0 0 0 0 0.937255 0 0 0 0 0.937255 0 0 0 1 0"/>
<feBlend mode="normal" in2="effect3_dropShadow_3_2" result="effect4_dropShadow_3_2"/>
<feBlend mode="normal" in="SourceGraphic" in2="effect4_dropShadow_3_2" result="shape"/>
</filter>
</defs>
</svg>
