<svg width="34" height="25" fill="none" xmlns="http://www.w3.org/2000/svg"><path fill-rule="evenodd" clip-rule="evenodd" d="M11.368.17A29.36 29.36 0 005.83 1.936c-.319.136-.37.19-.814.888C2.883 6.17 1.503 9.612.879 13.144.554 14.983.493 15.78.5 18.05c.004 1.163.032 2.272.062 2.465l.055.35.839.567a27.557 27.557 0 006.565 3.284c.47.16.89.276.934.26.158-.06 1.767-2.61 1.767-2.8 0-.023-.167-.108-.372-.188-.505-.197-2.158-1.012-2.267-1.117-.112-.108-.084-.15.261-.396l.28-.2.646.273c3.406 1.443 7.304 1.91 10.911 1.308 1.662-.277 3.17-.73 4.943-1.489.227-.097.233-.095.517.128.157.124.287.259.287.3 0 .09-1.347.79-2.066 1.075-.285.113-.544.228-.576.256-.128.112 1.547 2.867 1.747 2.874.04.001.418-.115.84-.26a27.68 27.68 0 006.64-3.308l.84-.566.043-.35c.024-.194.064-1.015.089-1.825.176-5.651-1.297-10.806-4.534-15.87l-.478-.746-.885-.365C25.956 1.036 23.827.396 22.253.106L21.677 0l-.116.15c-.063.083-.268.478-.455.878l-.34.728-.324-.039a376.6 376.6 0 01-.938-.116c-.8-.1-4.163-.1-5.004 0l-.969.113-.322.036-.42-.853c-.49-.995-.405-.951-1.42-.727zm1.32 10.567c.84.412 1.455 1.212 1.69 2.199.128.54.088 1.428-.088 1.948-.746 2.205-3.181 2.874-4.762 1.308-1.033-1.025-1.285-2.688-.612-4.048a3.017 3.017 0 011.733-1.543c.359-.125.522-.145.998-.123.493.024.631.058 1.041.259zm10.989.006c1.105.542 1.77 1.662 1.766 2.98-.001.96-.305 1.757-.914 2.406-1.68 1.787-4.394.853-4.935-1.7-.284-1.34.306-2.83 1.395-3.524.53-.338.977-.454 1.634-.425.499.022.63.055 1.054.263z" fill="#fff"/></svg>