<svg width="32" height="32" fill="none" xmlns="http://www.w3.org/2000/svg"><path fill-rule="evenodd" clip-rule="evenodd" d="M31.125 16c0 8.353-6.772 15.125-15.125 15.125S.875 24.353.875 16 7.647.875 16 .875 31.125 7.647 31.125 16zM17.421 28.887c4.618-.503 8.507-3.432 10.368-7.485h-7.032a21.527 21.527 0 01-3.385 7.43l.049.055zm-2.842 0l.05-.056a21.527 21.527 0 01-3.386-7.43H4.211c1.86 4.054 5.75 6.983 10.368 7.486zm-1.11-7.485A19.23 19.23 0 0016 27.022a19.23 19.23 0 002.531-5.62H13.47zm5.522-2.161h-5.982A20.96 20.96 0 0112.76 16c0-1.108.086-2.19.25-3.241h5.982c.164 1.05.25 2.133.25 3.241s-.086 2.19-.25 3.241zm2.182 0h7.383c.267-1.036.408-2.122.408-3.241 0-1.12-.141-2.205-.408-3.241h-7.383a22.982 22.982 0 010 6.482zm-.416-8.643h7.032c-1.86-4.053-5.75-6.982-10.368-7.485l-.05.056a21.525 21.525 0 013.386 7.43zm-2.226 0A19.23 19.23 0 0016 4.978a19.23 19.23 0 00-2.531 5.62h5.062zm-7.288 0a21.525 21.525 0 013.385-7.43l-.049-.055c-4.618.503-8.507 3.432-10.368 7.485h7.032zm-.416 2.161a22.982 22.982 0 000 6.482H3.444A12.986 12.986 0 013.036 16c0-1.12.142-2.205.408-3.241h7.383z" fill="#fff"/></svg>